<svg width="148" height="147" viewBox="0 0 148 147" fill="none" xmlns="http://www.w3.org/2000/svg">
<path d="M143.068 73.8988C143.068 75.1369 143.03 76.375 142.954 77.6131C142.954 77.6131 142.967 78.3332 143.611 78.6617C144.129 78.9144 145.67 79.6093 145.734 79.6345C145.734 79.6345 146.176 79.8746 146.176 80.2157C146.176 80.7337 145.999 82.9193 145.999 82.932C145.986 83.0836 146.1 83.2225 146.251 83.2352C146.403 83.2478 146.542 83.1467 146.555 82.9825C146.555 82.8941 146.744 80.7589 146.732 80.2157C146.732 80.0767 146.706 79.9504 146.656 79.824C146.466 79.3692 145.999 79.1418 145.974 79.1292C145.948 79.1165 144.356 78.4217 143.864 78.1816C143.712 78.1058 143.624 77.9921 143.573 77.8784C143.51 77.7395 143.51 77.6258 143.51 77.6005L143.624 73.8861L143.598 73.7598C143.548 73.6713 143.459 73.6082 143.346 73.6082C143.194 73.6082 143.068 73.7219 143.068 73.8735V73.8988Z" fill="#E63946"/>
<path d="M144.243 74.0881C144.243 74.8841 144.23 75.68 144.193 76.4885C144.193 76.4885 143.94 77.6635 145.102 78.1562C146.277 78.6616 146.542 78.8005 146.542 78.8005C146.542 78.8005 146.631 78.8384 146.656 78.4341C146.669 78.2067 146.707 78.1309 146.517 77.9667C146.391 77.8656 145.772 77.9162 145.746 76.7412C145.746 75.5663 146.214 74.1008 144.23 74.1008L144.243 74.0881Z" fill="#E63946"/>
<path d="M142.828 79.444C142.727 80.6821 142.601 81.9076 142.424 83.1331C142.424 83.1331 142.386 83.8532 143.005 84.2322C143.485 84.5228 144.976 85.3313 145.039 85.3692C145.039 85.3692 145.456 85.6346 145.431 85.9757C145.393 86.4937 145.052 88.654 145.027 88.6667C145.001 88.8183 145.102 88.9699 145.254 88.9952C145.406 89.0204 145.557 88.9194 145.582 88.7678C145.608 88.6793 145.949 86.5568 145.987 86.0262C145.999 85.8872 145.987 85.7483 145.936 85.6346C145.785 85.1671 145.33 84.9018 145.317 84.8892C145.292 84.8765 143.763 84.0553 143.296 83.7774C143.157 83.689 143.068 83.5626 143.03 83.4489C142.98 83.3099 142.98 83.1962 142.98 83.171L143.384 79.4692L143.359 79.3429C143.321 79.2545 143.233 79.1913 143.119 79.1787C142.967 79.1787 142.828 79.2797 142.816 79.4187L142.828 79.444Z" fill="#E63946"/>
<path d="M143.99 79.7228C143.927 80.5187 143.839 81.3146 143.75 82.1106C143.75 82.1106 143.396 83.2602 144.533 83.8414C145.658 84.4352 145.923 84.5994 145.923 84.5994C145.923 84.5994 146.012 84.6373 146.075 84.2457C146.1 84.0183 146.151 83.9425 145.974 83.7782C145.847 83.6645 145.228 83.6772 145.304 82.4896C145.38 81.3146 145.974 79.8996 144.003 79.7354L143.99 79.7228Z" fill="#E63946"/>
<path d="M142.145 84.9401C141.955 86.1656 141.715 87.3784 141.45 88.5786C141.45 88.5786 141.362 89.2988 141.93 89.7283C142.385 90.0568 143.813 90.9917 143.876 91.0296C143.876 91.0296 144.28 91.3328 144.217 91.6739C144.128 92.1793 143.611 94.3144 143.598 94.327C143.56 94.4786 143.648 94.6303 143.8 94.6682C143.952 94.7061 144.103 94.6176 144.141 94.466C144.179 94.3776 144.684 92.293 144.773 91.775C144.798 91.636 144.785 91.4971 144.76 91.3833C144.646 90.9033 144.217 90.6001 144.192 90.5874C144.166 90.5748 142.714 89.6399 142.271 89.324C142.132 89.223 142.069 89.0966 142.031 88.9829C141.993 88.844 142.006 88.7176 142.006 88.705L142.701 85.0538V84.9275C142.663 84.839 142.575 84.7632 142.461 84.7506C142.309 84.7253 142.17 84.8264 142.145 84.9654V84.9401Z" fill="#E63946"/>
<path d="M143.283 85.3192C143.169 86.1151 143.005 86.8858 142.853 87.6817C142.853 87.6817 142.411 88.7935 143.485 89.4757C144.571 90.1579 144.799 90.3348 144.799 90.3348C144.799 90.3348 144.887 90.3853 144.975 89.9937C145.026 89.7789 145.077 89.7031 144.912 89.5136C144.811 89.3999 144.167 89.3494 144.356 88.1744C144.521 87.0121 145.241 85.6476 143.283 85.3192Z" fill="#E63946"/>
<path d="M141.034 90.3733C140.743 91.5735 140.402 92.7737 140.048 93.9487C140.048 93.9487 139.884 94.6562 140.427 95.1363C140.857 95.5026 142.209 96.5513 142.259 96.5892C142.259 96.5892 142.638 96.9176 142.55 97.2588C142.436 97.7641 141.741 99.8361 141.716 99.8613C141.666 100 141.741 100.165 141.893 100.215C142.045 100.266 142.196 100.19 142.247 100.051C142.285 99.9624 142.967 97.9283 143.093 97.4104C143.131 97.2714 143.131 97.145 143.118 97.0187C143.043 96.5386 142.638 96.1975 142.613 96.1849C142.588 96.1596 141.211 95.111 140.794 94.7572C140.667 94.6562 140.617 94.5172 140.592 94.4035C140.566 94.2519 140.592 94.1382 140.592 94.1129L141.577 90.5249V90.3986C141.552 90.2975 141.476 90.2217 141.362 90.1964C141.211 90.1585 141.059 90.247 141.034 90.3859V90.3733Z" fill="#E63946"/>
<path d="M142.12 90.8403C141.931 91.611 141.716 92.3943 141.501 93.1649C141.501 93.1649 140.971 94.2388 141.994 94.9968C143.005 95.7549 143.232 95.9696 143.232 95.957C143.232 95.957 143.321 96.0202 143.447 95.6285C143.51 95.4137 143.573 95.3506 143.422 95.1484C143.321 95.0221 142.701 94.921 142.967 93.7713C143.232 92.6217 144.053 91.3204 142.133 90.8403H142.12Z" fill="#E63946"/>
<path d="M139.48 95.7046C139.075 96.8795 138.659 98.0419 138.204 99.1915C138.204 99.1915 137.989 99.8738 138.494 100.404C138.899 100.809 140.149 101.946 140.2 101.996C140.2 101.996 140.541 102.363 140.427 102.678C140.276 103.171 139.404 105.18 139.391 105.205C139.328 105.344 139.391 105.508 139.53 105.572C139.669 105.635 139.833 105.572 139.897 105.433C139.935 105.357 140.781 103.373 140.945 102.868C140.996 102.729 141.008 102.603 140.996 102.476C140.958 101.996 140.592 101.617 140.566 101.605C140.541 101.579 139.252 100.43 138.873 100.038C138.76 99.9243 138.709 99.7853 138.696 99.659C138.684 99.5074 138.709 99.3937 138.722 99.381L139.998 95.8941V95.7678C139.998 95.6667 139.922 95.5909 139.808 95.553C139.657 95.5025 139.505 95.5783 139.454 95.7172L139.48 95.7046Z" fill="#E63946"/>
<path d="M140.529 96.2603C140.263 97.0183 140.011 97.7763 139.72 98.5217C139.72 98.5217 139.114 99.5577 140.061 100.392C141.009 101.238 141.224 101.453 141.224 101.453C141.224 101.453 141.299 101.516 141.451 101.137C141.54 100.935 141.603 100.859 141.451 100.657C141.363 100.518 140.756 100.379 141.11 99.2545C141.476 98.1301 142.386 96.9046 140.516 96.2603H140.529Z" fill="#E63946"/>
<path d="M137.496 100.884C137.004 102.021 136.498 103.145 135.942 104.257C135.942 104.257 135.677 104.927 136.144 105.483C136.511 105.912 137.673 107.15 137.711 107.213C137.711 107.213 138.027 107.605 137.888 107.921C137.686 108.401 136.675 110.334 136.65 110.347C136.574 110.486 136.624 110.65 136.763 110.726C136.902 110.801 137.067 110.751 137.142 110.612C137.193 110.536 138.191 108.628 138.406 108.148C138.456 108.022 138.482 107.883 138.482 107.757C138.482 107.264 138.141 106.872 138.128 106.847C138.115 106.822 136.928 105.571 136.561 105.154C136.46 105.028 136.422 104.889 136.41 104.762C136.41 104.611 136.448 104.497 136.448 104.484L138.002 101.111L138.027 100.985C138.027 100.884 137.951 100.795 137.85 100.757C137.711 100.694 137.547 100.757 137.484 100.884H137.496Z" fill="#E63946"/>
<path d="M138.494 101.516C138.178 102.249 137.85 102.982 137.509 103.702C137.509 103.702 136.814 104.675 137.698 105.584C138.582 106.507 138.772 106.747 138.772 106.747C138.772 106.747 138.848 106.81 139.025 106.456C139.126 106.254 139.189 106.203 139.075 105.976C138.999 105.837 138.406 105.635 138.848 104.548C139.29 103.462 140.313 102.312 138.494 101.516Z" fill="#E63946"/>
<path d="M135.095 105.887C134.527 106.986 133.908 108.06 133.276 109.121C133.276 109.121 132.96 109.766 133.377 110.36C133.706 110.827 134.754 112.154 134.805 112.217C134.805 112.217 135.095 112.634 134.931 112.937C134.691 113.392 133.529 115.249 133.504 115.261C133.428 115.388 133.453 115.565 133.592 115.64C133.718 115.729 133.895 115.691 133.971 115.565C134.034 115.489 135.171 113.682 135.424 113.202C135.5 113.076 135.525 112.949 135.538 112.823C135.576 112.33 135.272 111.913 135.247 111.888C135.234 111.863 134.148 110.511 133.832 110.069C133.731 109.93 133.718 109.791 133.718 109.677C133.718 109.526 133.769 109.412 133.782 109.399L135.601 106.152L135.626 106.026C135.626 105.925 135.563 105.837 135.474 105.786C135.336 105.71 135.171 105.761 135.108 105.887H135.095Z" fill="#E63946"/>
<path d="M136.043 106.594C135.677 107.302 135.273 107.997 134.893 108.692C134.893 108.692 134.123 109.601 134.931 110.587C135.727 111.572 135.904 111.825 135.904 111.825C135.904 111.825 135.967 111.901 136.182 111.559C136.308 111.37 136.372 111.319 136.271 111.079C136.207 110.928 135.626 110.688 136.157 109.639C136.687 108.591 137.799 107.529 136.043 106.594Z" fill="#E63946"/>
<path d="M132.316 110.675C131.647 111.724 130.965 112.747 130.244 113.758C130.244 113.758 129.878 114.377 130.244 114.996C130.535 115.489 131.483 116.891 131.52 116.954C131.52 116.954 131.773 117.384 131.584 117.675C131.318 118.117 129.992 119.86 129.979 119.885C129.878 120.012 129.903 120.176 130.03 120.277C130.156 120.378 130.333 120.353 130.421 120.227C130.484 120.151 131.773 118.445 132.051 117.99C132.127 117.877 132.177 117.75 132.203 117.624C132.291 117.144 132.013 116.702 132.001 116.676C132.001 116.651 131.015 115.224 130.737 114.756C130.649 114.617 130.636 114.466 130.661 114.352C130.674 114.2 130.737 114.099 130.75 114.087L132.822 111.004L132.86 110.89C132.86 110.789 132.822 110.688 132.721 110.638C132.594 110.549 132.417 110.587 132.342 110.713L132.316 110.675Z" fill="#E63946"/>
<path d="M133.201 111.471C132.759 112.141 132.329 112.811 131.874 113.468C131.874 113.468 131.041 114.327 131.761 115.363C132.481 116.411 132.632 116.677 132.632 116.677C132.632 116.677 132.696 116.765 132.936 116.437C133.062 116.26 133.138 116.209 133.062 115.969C133.011 115.818 132.456 115.527 133.062 114.516C133.681 113.518 134.869 112.533 133.201 111.471Z" fill="#E63946"/>
<path d="M129.145 115.236C128.4 116.221 127.629 117.194 126.833 118.142C126.833 118.142 126.416 118.736 126.732 119.38C126.985 119.885 127.806 121.363 127.844 121.427C127.844 121.427 128.059 121.881 127.844 122.147C127.528 122.564 126.088 124.206 126.063 124.206C125.962 124.32 125.962 124.497 126.075 124.598C126.189 124.699 126.366 124.699 126.467 124.585C126.53 124.522 127.958 122.917 128.274 122.488C128.362 122.374 128.413 122.248 128.451 122.134C128.577 121.654 128.337 121.187 128.324 121.161C128.324 121.136 127.465 119.633 127.212 119.14C127.137 118.988 127.137 118.849 127.162 118.723C127.187 118.584 127.263 118.483 127.263 118.458L129.588 115.552L129.638 115.438C129.651 115.337 129.613 115.236 129.524 115.173C129.398 115.084 129.234 115.097 129.133 115.211L129.145 115.236Z" fill="#E63946"/>
<path d="M129.966 116.096C129.486 116.74 128.993 117.359 128.488 117.991C128.488 117.991 127.578 118.774 128.223 119.873C128.867 120.972 128.993 121.25 128.993 121.25C128.993 121.25 129.044 121.339 129.309 121.023C129.448 120.846 129.537 120.808 129.474 120.568C129.436 120.416 128.905 120.075 129.6 119.128C130.295 118.18 131.558 117.296 129.979 116.096H129.966Z" fill="#E63946"/>
<path d="M125.621 119.532C124.8 120.466 123.953 121.364 123.082 122.235C123.082 122.235 122.627 122.791 122.879 123.461C123.094 123.979 123.802 125.533 123.827 125.596C123.827 125.596 124.004 126.063 123.776 126.316C123.435 126.708 121.856 128.224 121.831 128.236C121.717 128.337 121.717 128.514 121.831 128.628C121.932 128.742 122.109 128.742 122.222 128.641C122.298 128.59 123.84 127.087 124.193 126.695C124.294 126.594 124.358 126.48 124.395 126.354C124.547 125.886 124.345 125.406 124.345 125.381C124.345 125.356 123.599 123.789 123.397 123.284C123.334 123.132 123.347 122.981 123.385 122.867C123.423 122.715 123.498 122.627 123.511 122.614L126.05 119.898L126.101 119.784C126.126 119.683 126.101 119.582 126.013 119.506C125.899 119.405 125.722 119.405 125.621 119.506V119.532Z" fill="#E63946"/>
<path d="M126.378 120.453C125.847 121.06 125.292 121.628 124.748 122.222C124.748 122.222 123.788 122.93 124.331 124.079C124.875 125.229 124.976 125.507 124.988 125.507C124.988 125.507 125.039 125.595 125.329 125.317C125.494 125.166 125.57 125.128 125.532 124.875C125.506 124.711 125.001 124.332 125.772 123.448C126.53 122.551 127.869 121.78 126.391 120.466L126.378 120.453Z" fill="#E63946"/>
<path d="M121.78 123.524C120.883 124.383 119.974 125.217 119.039 126.025C119.039 126.025 118.533 126.531 118.735 127.226C118.9 127.769 119.493 129.361 119.506 129.437C119.506 129.437 119.645 129.917 119.392 130.157C119.026 130.523 117.333 131.9 117.308 131.913C117.181 132.001 117.169 132.178 117.257 132.304C117.358 132.431 117.535 132.443 117.649 132.355C117.725 132.304 119.392 130.94 119.771 130.574C119.872 130.472 119.948 130.359 119.999 130.245C120.188 129.803 120.037 129.298 120.024 129.272C120.024 129.247 119.405 127.617 119.241 127.099C119.19 126.935 119.216 126.796 119.253 126.682C119.304 126.543 119.392 126.455 119.405 126.442L122.159 123.941L122.222 123.84C122.248 123.739 122.222 123.638 122.159 123.562C122.046 123.448 121.881 123.448 121.78 123.549V123.524Z" fill="#E63946"/>
<path d="M122.449 124.496C121.855 125.04 121.287 125.596 120.68 126.126C120.68 126.126 119.669 126.758 120.112 127.933C120.566 129.12 120.642 129.411 120.642 129.411C120.642 129.411 120.68 129.499 120.996 129.247C121.173 129.108 121.249 129.082 121.236 128.83C121.223 128.666 120.756 128.261 121.59 127.427C122.436 126.606 123.813 125.937 122.449 124.496Z" fill="#E63946"/>
<path d="M117.611 127.201C116.651 127.984 115.678 128.742 114.667 129.475C114.667 129.475 114.124 129.955 114.276 130.65C114.389 131.206 114.844 132.835 114.87 132.911C114.87 132.911 114.971 133.404 114.705 133.619C114.301 133.947 112.507 135.198 112.482 135.198C112.355 135.286 112.317 135.463 112.406 135.59C112.494 135.716 112.671 135.754 112.798 135.665C112.873 135.627 114.642 134.389 115.046 134.061C115.16 133.972 115.236 133.871 115.299 133.758C115.526 133.328 115.4 132.81 115.4 132.785C115.4 132.76 114.92 131.092 114.794 130.561C114.756 130.397 114.794 130.258 114.844 130.144C114.907 130.005 114.996 129.93 115.008 129.917L117.952 127.643L118.028 127.542C118.066 127.453 118.053 127.34 117.977 127.264C117.876 127.15 117.712 127.125 117.598 127.213L117.611 127.201Z" fill="#E63946"/>
<path d="M118.217 128.224C117.598 128.729 116.966 129.222 116.322 129.714C116.322 129.714 115.261 130.258 115.614 131.483C115.981 132.709 116.031 133.012 116.031 132.999C116.031 132.987 116.069 133.1 116.398 132.86C116.574 132.734 116.663 132.709 116.663 132.456C116.663 132.292 116.221 131.837 117.13 131.092C118.027 130.334 119.468 129.778 118.217 128.236V128.224Z" fill="#E63946"/>
<path d="M113.177 130.523C112.166 131.231 111.117 131.901 110.069 132.558C110.069 132.558 109.488 132.987 109.589 133.695C109.664 134.25 109.993 135.931 109.993 135.994C109.993 135.994 110.056 136.499 109.778 136.676C109.349 136.979 107.466 138.079 107.441 138.079C107.315 138.154 107.264 138.331 107.34 138.458C107.416 138.596 107.58 138.647 107.719 138.559C107.807 138.521 109.664 137.447 110.094 137.144C110.208 137.068 110.309 136.967 110.372 136.866C110.637 136.449 110.549 135.931 110.549 135.905C110.549 135.88 110.208 134.175 110.132 133.644C110.107 133.48 110.157 133.341 110.22 133.24C110.296 133.113 110.385 133.038 110.397 133.025L113.505 130.991L113.594 130.89C113.631 130.801 113.631 130.688 113.568 130.599C113.48 130.473 113.316 130.435 113.189 130.523H113.177Z" fill="#E63946"/>
<path d="M113.694 131.597C113.037 132.052 112.368 132.481 111.698 132.923C111.698 132.923 110.586 133.378 110.851 134.629C111.104 135.88 111.142 136.17 111.142 136.17C111.142 136.17 111.167 136.271 111.521 136.057C111.711 135.943 111.799 135.93 111.824 135.678C111.824 135.513 111.433 135.033 112.393 134.351C113.353 133.669 114.819 133.239 113.694 131.597Z" fill="#E63946"/>
<path d="M108.489 133.492C107.415 134.111 106.329 134.705 105.23 135.261C105.23 135.261 104.623 135.64 104.661 136.36C104.699 136.928 104.876 138.621 104.889 138.685C104.889 138.685 104.914 139.19 104.611 139.354C104.168 139.619 102.185 140.554 102.172 140.567C102.033 140.63 101.97 140.794 102.033 140.933C102.097 141.072 102.261 141.135 102.4 141.072C102.488 141.034 104.421 140.112 104.876 139.847C105.002 139.771 105.103 139.683 105.179 139.582C105.47 139.202 105.432 138.672 105.432 138.647C105.432 138.621 105.23 136.891 105.192 136.347C105.192 136.183 105.242 136.044 105.306 135.943C105.394 135.817 105.495 135.753 105.508 135.741L108.78 133.972L108.868 133.884C108.919 133.795 108.919 133.694 108.868 133.593C108.792 133.454 108.628 133.416 108.502 133.492H108.489Z" fill="#E63946"/>
<path d="M108.919 134.603C108.224 134.995 107.529 135.399 106.821 135.766C106.821 135.766 105.684 136.145 105.849 137.396C106 138.659 106.013 138.962 106.013 138.962C106.013 138.962 106.025 139.063 106.392 138.886C106.594 138.785 106.682 138.785 106.72 138.533C106.746 138.368 106.392 137.863 107.39 137.257C108.401 136.663 109.904 136.334 108.919 134.616V134.603Z" fill="#E63946"/>
<path d="M103.574 136.069C102.462 136.6 101.325 137.105 100.188 137.573C100.188 137.573 99.5562 137.901 99.5309 138.621C99.5183 139.19 99.5688 140.883 99.5688 140.959C99.5688 140.959 99.5436 141.464 99.2403 141.603C98.7729 141.83 96.7262 142.614 96.7009 142.601C96.562 142.652 96.4862 142.816 96.5367 142.955C96.5872 143.106 96.7515 143.182 96.8904 143.119C96.9789 143.094 98.9877 142.323 99.4677 142.096C99.5941 142.033 99.6952 141.957 99.7836 141.856C100.112 141.489 100.112 140.971 100.112 140.946C100.112 140.921 100.062 139.19 100.062 138.634C100.062 138.47 100.137 138.343 100.213 138.242C100.302 138.129 100.415 138.066 100.428 138.066L103.826 136.562L103.927 136.486C103.991 136.411 104.003 136.297 103.953 136.196C103.89 136.057 103.725 135.994 103.586 136.057L103.574 136.069Z" fill="#E63946"/>
<path d="M103.915 137.207C103.195 137.56 102.462 137.876 101.729 138.205C101.729 138.205 100.567 138.47 100.617 139.746C100.668 141.022 100.655 141.325 100.655 141.325C100.655 141.325 100.655 141.426 101.034 141.275C101.237 141.186 101.325 141.186 101.388 140.946C101.426 140.782 101.11 140.252 102.171 139.721C103.233 139.19 104.749 139.001 103.902 137.207H103.915Z" fill="#E63946"/>
<path d="M95.0969 139.43C93.9219 139.809 92.7343 140.15 91.5341 140.466C91.5341 140.466 90.8645 140.706 90.7382 141.414C90.6498 141.969 90.4729 143.662 90.4603 143.738C90.4603 143.738 90.3718 144.231 90.0433 144.332C89.5506 144.496 87.4281 145.002 87.4029 144.989C87.2513 145.027 87.1628 145.166 87.1881 145.317C87.226 145.469 87.365 145.57 87.5166 145.532C87.605 145.532 89.7022 145.027 90.2076 144.863C90.3465 144.825 90.4603 144.762 90.5613 144.673C90.9277 144.357 91.0035 143.827 91.0161 143.801C91.0161 143.776 91.193 142.045 91.2688 141.515C91.2941 141.35 91.3825 141.237 91.4709 141.148C91.572 141.047 91.6857 140.997 91.711 140.997L95.2864 139.948L95.3874 139.885C95.4506 139.809 95.4759 139.708 95.4506 139.607C95.4001 139.455 95.2485 139.38 95.1095 139.417L95.0969 139.43Z" fill="#E63946"/>
<path d="M95.2734 140.605C94.5154 140.845 93.7447 141.072 92.974 141.3C92.974 141.3 91.7865 141.413 91.6728 142.677C91.559 143.94 91.4959 144.243 91.5085 144.243C91.5085 144.243 91.5085 144.344 91.9002 144.243C92.1149 144.193 92.2034 144.206 92.3044 143.965C92.355 143.814 92.1149 143.233 93.2394 142.854C94.3511 142.475 95.8925 142.487 95.286 140.592L95.2734 140.605Z" fill="#E63946"/>
<path d="M89.7534 140.908C88.5532 141.186 87.3404 141.439 86.1149 141.653C86.1149 141.653 85.42 141.83 85.2431 142.538C85.1168 143.094 84.801 144.761 84.7883 144.837C84.7883 144.837 84.662 145.317 84.3209 145.393C83.8155 145.519 81.6551 145.848 81.6299 145.848C81.4783 145.873 81.3772 146.012 81.3898 146.164C81.4151 146.315 81.5541 146.429 81.7057 146.404C81.7941 146.404 83.9166 146.075 84.4346 145.949C84.5736 145.924 84.6999 145.861 84.801 145.785C85.1926 145.507 85.3063 144.989 85.3189 144.964C85.3189 144.938 85.6348 143.233 85.7611 142.702C85.799 142.538 85.8875 142.424 85.9885 142.348C86.1022 142.26 86.2159 142.222 86.2412 142.222L89.8798 141.477L89.9935 141.413C90.0693 141.35 90.0945 141.249 90.0693 141.135C90.0314 140.984 89.8924 140.895 89.7534 140.921V140.908Z" fill="#E63946"/>
<path d="M89.8414 142.096C89.0581 142.26 88.2748 142.45 87.4915 142.602C87.4915 142.602 86.2913 142.627 86.0765 143.878C85.8617 145.128 85.7859 145.419 85.7859 145.419C85.7859 145.419 85.7859 145.52 86.1776 145.457C86.3924 145.419 86.4808 145.444 86.5945 145.217C86.6577 145.065 86.4682 144.484 87.6178 144.181C88.7675 143.903 90.2836 144.029 89.8414 142.096Z" fill="#E63946"/>
<path d="M84.3083 141.945C83.0828 142.121 81.8573 142.273 80.6192 142.399C80.6192 142.399 79.9117 142.526 79.6843 143.208C79.5074 143.751 79.0652 145.381 79.0399 145.457C79.0399 145.457 78.8757 145.937 78.5346 145.975C78.0292 146.063 75.8436 146.202 75.8183 146.215C75.6667 146.215 75.553 146.354 75.553 146.505C75.553 146.657 75.692 146.783 75.8436 146.771C75.932 146.771 78.0798 146.619 78.5978 146.531C78.7367 146.505 78.8631 146.467 78.9641 146.392C79.3811 146.139 79.5453 145.646 79.5453 145.608C79.5453 145.583 80.0001 143.903 80.1644 143.385C80.2149 143.221 80.316 143.12 80.417 143.056C80.5434 142.981 80.6571 142.943 80.6823 142.943L84.3714 142.488L84.4851 142.437C84.5609 142.387 84.6115 142.273 84.5862 142.172C84.5609 142.02 84.422 141.907 84.283 141.932L84.3083 141.945Z" fill="#E63946"/>
<path d="M84.2953 143.131C83.4994 143.245 82.7161 143.359 81.9202 143.435C81.9202 143.435 80.7326 143.371 80.4167 144.597C80.1009 145.835 79.9998 146.113 79.9998 146.113C79.9998 146.113 79.9746 146.214 80.3788 146.176C80.6063 146.151 80.6821 146.176 80.821 145.974C80.8968 145.822 80.7579 145.229 81.9202 145.026C83.0825 144.837 84.5985 145.09 84.308 143.131H84.2953Z" fill="#E63946"/>
<path d="M78.7865 142.538C77.5484 142.626 76.3102 142.677 75.0721 142.689C75.0721 142.689 74.3646 142.765 74.0741 143.422C73.8593 143.94 73.2781 145.532 73.2528 145.608C73.2528 145.608 73.0507 146.063 72.7096 146.088C72.1916 146.138 70.006 146.113 69.9807 146.101C69.8291 146.101 69.7028 146.214 69.6901 146.366C69.6901 146.517 69.8038 146.656 69.9681 146.656C70.0565 146.656 72.2043 146.682 72.7349 146.644C72.8865 146.644 73.0002 146.593 73.1139 146.543C73.5434 146.328 73.7456 145.835 73.7582 145.81C73.7582 145.785 74.3394 144.142 74.5541 143.637C74.6173 143.485 74.731 143.384 74.8321 143.334C74.9584 143.258 75.0721 143.245 75.0974 143.245L78.8118 143.081L78.9381 143.043C79.0265 142.993 79.0771 142.892 79.0644 142.79C79.0644 142.639 78.9255 142.513 78.7865 142.525V142.538Z" fill="#E63946"/>
<path d="M78.6725 143.725C77.8766 143.788 77.0806 143.814 76.2721 143.851C76.2721 143.851 75.0845 143.675 74.6802 144.887C74.2633 146.1 74.1369 146.366 74.1369 146.366C74.1369 146.366 74.1117 146.467 74.5159 146.454C74.7434 146.454 74.8192 146.492 74.9708 146.277C75.0592 146.138 74.9708 145.519 76.1457 145.418C77.3207 145.317 78.8115 145.696 78.6725 143.712V143.725Z" fill="#E63946"/>
<path d="M73.2401 142.702C72.002 142.702 70.7639 142.651 69.5258 142.563C69.5258 142.563 68.8057 142.575 68.4772 143.22C68.2245 143.712 67.517 145.266 67.4917 145.329C67.4917 145.329 67.2517 145.772 66.9106 145.772C66.3926 145.772 64.2069 145.582 64.1943 145.569C64.0427 145.557 63.9037 145.67 63.8911 145.822C63.8785 145.974 63.9922 146.113 64.1438 146.125C64.2322 146.151 66.3673 146.327 66.9106 146.327C67.0496 146.327 67.1885 146.302 67.3022 146.252C67.7571 146.062 67.9845 145.595 67.9971 145.569C68.0097 145.544 68.7046 143.965 68.9573 143.472C69.0331 143.321 69.1468 143.232 69.2605 143.182C69.3995 143.118 69.5131 143.118 69.5384 143.106L73.2528 143.245L73.3791 143.22C73.4676 143.169 73.5307 143.081 73.5307 142.967C73.5307 142.815 73.417 142.689 73.2654 142.676L73.2401 142.702Z" fill="#E63946"/>
<path d="M73.038 143.877C72.242 143.877 71.4461 143.839 70.6376 143.813C70.6376 143.813 69.4752 143.548 68.9699 144.723C68.4645 145.898 68.3129 146.163 68.3129 146.163C68.3129 146.163 68.275 146.264 68.6793 146.29C68.9067 146.302 68.9825 146.34 69.1468 146.151C69.2478 146.024 69.1973 145.393 70.3849 145.393C71.5598 145.393 73.0127 145.885 73.038 143.889V143.877Z" fill="#E63946"/>
<path d="M67.6939 142.424C66.4558 142.323 65.2303 142.171 64.0049 141.994C64.0049 141.994 63.2974 141.956 62.9057 142.563C62.6025 143.043 61.7813 144.534 61.7434 144.597C61.7434 144.597 61.4655 145.026 61.137 144.988C60.619 144.938 58.4586 144.584 58.446 144.559C58.2944 144.534 58.1554 144.635 58.1175 144.786C58.0922 144.938 58.1933 145.09 58.3449 145.115C58.4333 145.14 60.5558 145.494 61.0864 145.544C61.2254 145.557 61.3644 145.544 61.4781 145.506C61.9455 145.355 62.2109 144.9 62.2235 144.875C62.2361 144.85 63.07 143.333 63.3479 142.866C63.4363 142.727 63.5627 142.651 63.6764 142.601C63.8153 142.55 63.929 142.55 63.9543 142.55L67.656 142.98L67.7824 142.954C67.8708 142.917 67.934 142.828 67.9466 142.714C67.9592 142.563 67.8582 142.424 67.7066 142.411L67.6939 142.424Z" fill="#E63946"/>
<path d="M67.4036 143.574C66.6076 143.51 65.8117 143.409 65.0158 143.321C65.0158 143.321 63.8787 142.954 63.2723 144.092C62.6785 145.216 62.5016 145.469 62.5143 145.469C62.5143 145.469 62.4763 145.557 62.868 145.62C63.0954 145.658 63.1712 145.696 63.3355 145.519C63.4492 145.405 63.4492 144.761 64.6241 144.862C65.799 144.938 67.214 145.557 67.3909 143.574H67.4036Z" fill="#E63946"/>
<path d="M62.1985 141.704C60.973 141.502 59.7728 141.249 58.56 140.984C58.56 140.984 57.8525 140.87 57.4229 141.451C57.0818 141.906 56.1469 143.334 56.109 143.384C56.109 143.384 55.8058 143.788 55.4647 143.725C54.9467 143.637 52.8368 143.106 52.8116 143.094C52.66 143.056 52.5084 143.144 52.4705 143.296C52.4326 143.447 52.521 143.599 52.6726 143.637C52.761 143.675 54.8456 144.193 55.3636 144.281C55.5026 144.306 55.6289 144.306 55.7553 144.281C56.2353 144.167 56.5385 143.738 56.5512 143.713C56.5638 143.687 57.5114 142.234 57.8398 141.805C57.9409 141.666 58.0673 141.603 58.181 141.577C58.3199 141.54 58.4463 141.552 58.4589 141.552L62.1101 142.272H62.2364C62.3248 142.234 62.4007 142.146 62.4259 142.045C62.4512 141.893 62.3501 141.754 62.2112 141.729L62.1985 141.704Z" fill="#E63946"/>
<path d="M61.8066 142.829C61.0233 142.69 60.2274 142.538 59.4441 142.374C59.4441 142.374 58.3323 141.932 57.6501 143.006C56.9678 144.079 56.7783 144.307 56.7783 144.307C56.7783 144.307 56.7278 144.395 57.1195 144.496C57.3342 144.547 57.41 144.597 57.5995 144.446C57.7259 144.345 57.7764 143.7 58.9387 143.89C60.101 144.067 61.4528 144.8 61.8066 142.841V142.829Z" fill="#E63946"/>
<path d="M56.7654 140.542C55.5652 140.226 54.3776 139.898 53.2026 139.519C53.2026 139.519 52.5078 139.354 52.0277 139.898C51.6487 140.327 50.6001 141.666 50.5622 141.717C50.5622 141.717 50.221 142.083 49.8926 141.995C49.3872 141.881 47.3153 141.161 47.3026 141.148C47.1636 141.098 46.9994 141.174 46.9489 141.313C46.8983 141.452 46.9741 141.616 47.1131 141.666C47.2015 141.704 49.223 142.399 49.7409 142.526C49.8799 142.563 50.0189 142.563 50.1326 142.551C50.6127 142.488 50.9538 142.083 50.9791 142.058C51.0043 142.033 52.0656 140.668 52.4193 140.251C52.533 140.125 52.6594 140.075 52.7857 140.049C52.9373 140.024 53.051 140.049 53.0636 140.049L56.639 141.073H56.7654C56.8538 141.047 56.9422 140.972 56.9675 140.858C57.0054 140.706 56.917 140.555 56.778 140.529L56.7654 140.542Z" fill="#E63946"/>
<path d="M56.2991 141.641C55.5284 141.439 54.7451 141.237 53.9871 140.997C53.9871 140.997 52.9132 140.466 52.1425 141.477C51.3719 142.487 51.1697 142.715 51.1697 142.715C51.1697 142.715 51.1192 142.791 51.4982 142.917C51.713 142.993 51.7761 143.043 51.9783 142.904C52.1046 142.803 52.2057 142.197 53.3554 142.462C54.505 142.753 55.7937 143.561 56.2864 141.641H56.2991Z" fill="#E63946"/>
<path d="M51.46 138.949C50.285 138.545 49.1354 138.116 47.9857 137.648C47.9857 137.648 47.3034 137.433 46.7855 137.926C46.3812 138.318 45.2315 139.568 45.181 139.619C45.181 139.619 44.8146 139.96 44.4861 139.846C43.9934 139.682 41.9846 138.81 41.972 138.785C41.833 138.722 41.6688 138.785 41.6056 138.924C41.5424 139.063 41.6056 139.227 41.7446 139.291C41.8204 139.341 43.7912 140.188 44.2966 140.364C44.4356 140.415 44.5619 140.428 44.6882 140.415C45.181 140.377 45.5474 140.011 45.5726 139.998C45.5979 139.985 46.7602 138.697 47.1519 138.318C47.2782 138.204 47.4171 138.154 47.5309 138.141C47.6825 138.128 47.7962 138.153 47.8088 138.166L51.2958 139.467H51.4221C51.5231 139.467 51.5989 139.392 51.6369 139.291C51.6874 139.152 51.6116 138.987 51.4726 138.937L51.46 138.949Z" fill="#E63946"/>
<path d="M50.9032 139.998C50.1452 139.733 49.3998 139.468 48.6544 139.177C48.6544 139.177 47.6311 138.558 46.7846 139.506C45.9381 140.453 45.7107 140.655 45.7107 140.668C45.7107 140.668 45.6476 140.744 46.0266 140.895C46.2287 140.984 46.2919 141.047 46.5067 140.908C46.6456 140.82 46.7972 140.213 47.9217 140.579C49.0461 140.946 50.2589 141.868 50.9159 139.998H50.9032Z" fill="#E63946"/>
<path d="M46.2919 136.928C45.1549 136.435 44.0431 135.905 42.9313 135.349C42.9313 135.349 42.2743 135.083 41.7058 135.526C41.2763 135.879 40.0255 137.042 39.9624 137.079C39.9624 137.079 39.5707 137.395 39.2549 137.256C38.7748 137.054 36.8544 136.018 36.8418 136.006C36.7028 135.93 36.5386 135.98 36.4628 136.119C36.387 136.258 36.4375 136.423 36.5765 136.498C36.6523 136.549 38.5474 137.56 39.0401 137.774C39.1664 137.838 39.3054 137.863 39.4317 137.863C39.9245 137.863 40.3161 137.522 40.3414 137.509C40.3667 137.496 41.63 136.309 42.0469 135.968C42.1733 135.867 42.3123 135.829 42.4386 135.829C42.5902 135.829 42.7039 135.867 42.7165 135.867L46.0898 137.446H46.2161C46.3172 137.446 46.4056 137.395 46.4435 137.294C46.5067 137.155 46.4435 136.991 46.3172 136.928H46.2919Z" fill="#E63946"/>
<path d="M45.6486 137.926C44.9159 137.61 44.1957 137.257 43.463 136.928C43.463 136.928 42.5028 136.221 41.5679 137.105C40.6456 137.977 40.4056 138.166 40.4056 138.166C40.4056 138.166 40.3298 138.242 40.6962 138.432C40.8983 138.545 40.9488 138.596 41.1763 138.482C41.3152 138.406 41.5174 137.8 42.6039 138.267C43.6904 138.722 44.8401 139.745 45.636 137.926H45.6486Z" fill="#E63946"/>
<path d="M41.3021 134.502C40.2155 133.921 39.1417 133.302 38.0804 132.658C38.0804 132.658 37.4487 132.329 36.8549 132.734C36.3875 133.062 35.0483 134.111 34.9851 134.149C34.9851 134.149 34.5682 134.427 34.2776 134.262C33.8102 134.022 31.9783 132.835 31.9656 132.822C31.8393 132.734 31.6624 132.772 31.574 132.898C31.4856 133.024 31.5235 133.201 31.6498 133.29C31.7256 133.34 33.5322 134.502 33.9997 134.755C34.126 134.831 34.2524 134.856 34.3787 134.869C34.8588 134.919 35.2883 134.603 35.3136 134.591C35.3389 134.578 36.7033 133.492 37.1455 133.188C37.2845 133.087 37.4235 133.075 37.5498 133.075C37.7014 133.075 37.8025 133.138 37.8277 133.138L41.062 134.982L41.1884 135.008C41.2894 135.008 41.3778 134.957 41.4284 134.856C41.5042 134.717 41.4537 134.553 41.3273 134.49L41.3021 134.502Z" fill="#E63946"/>
<path d="M40.5819 135.45C39.887 135.058 39.1796 134.679 38.4847 134.275C38.4847 134.275 37.5751 133.504 36.5896 134.3C35.6042 135.096 35.3515 135.26 35.3515 135.26C35.3515 135.26 35.2757 135.323 35.6168 135.538C35.8063 135.665 35.8569 135.728 36.0843 135.639C36.2359 135.576 36.4759 134.995 37.5245 135.538C38.5731 136.082 39.6344 137.193 40.5693 135.45H40.5819Z" fill="#E63946"/>
<path d="M36.5263 131.673C35.4903 131.004 34.467 130.309 33.4689 129.576C33.4689 129.576 32.8625 129.197 32.2308 129.563C31.7381 129.841 30.3231 130.776 30.2599 130.827C30.2599 130.827 29.8177 131.067 29.5398 130.89C29.0976 130.612 27.3667 129.286 27.3541 129.26C27.2404 129.172 27.0635 129.184 26.9625 129.311C26.8614 129.437 26.8867 129.601 27.0004 129.702C27.0635 129.766 28.7691 131.067 29.2239 131.357C29.3376 131.433 29.464 131.484 29.5903 131.509C30.0704 131.598 30.5252 131.32 30.5378 131.307C30.5631 131.307 32.0034 130.334 32.4708 130.056C32.6098 129.968 32.7614 129.955 32.8751 129.98C33.0267 129.993 33.1278 130.056 33.1404 130.069L36.2104 132.166L36.3241 132.204C36.4252 132.204 36.5136 132.166 36.5768 132.078C36.6652 131.951 36.6273 131.774 36.5136 131.699L36.5263 131.673Z" fill="#E63946"/>
<path d="M35.7428 132.557C35.0732 132.127 34.4037 131.672 33.7467 131.218C33.7467 131.218 32.9002 130.371 31.8516 131.091C30.803 131.811 30.5251 131.95 30.5377 131.963C30.5377 131.963 30.4619 132.026 30.7904 132.266C30.9673 132.393 31.0178 132.481 31.2578 132.393C31.4094 132.342 31.7 131.786 32.7107 132.418C33.7088 133.037 34.6816 134.237 35.7555 132.569L35.7428 132.557Z" fill="#E63946"/>
<path d="M32.003 128.477C31.0176 127.732 30.0574 126.948 29.1099 126.14C29.1099 126.14 28.5287 125.723 27.8844 126.026C27.3791 126.279 25.8883 127.1 25.8125 127.125C25.8125 127.125 25.3576 127.34 25.0923 127.125C24.6754 126.809 23.0456 125.356 23.0456 125.331C22.9319 125.23 22.7551 125.243 22.654 125.344C22.5529 125.457 22.5529 125.634 22.6666 125.735C22.7298 125.811 24.3217 127.239 24.7512 127.555C24.8649 127.643 24.9786 127.706 25.105 127.732C25.5724 127.858 26.0525 127.618 26.0778 127.605C26.103 127.605 27.6191 126.746 28.0992 126.506C28.2508 126.43 28.3898 126.43 28.5161 126.456C28.6551 126.481 28.7561 126.557 28.7814 126.557L31.6746 128.894L31.7883 128.944C31.8893 128.957 31.9904 128.919 32.0536 128.831C32.1546 128.704 32.1294 128.54 32.0157 128.452L32.003 128.477Z" fill="#E63946"/>
<path d="M31.1315 129.298C30.4872 128.818 29.8807 128.3 29.2491 127.807C29.2491 127.807 28.4784 126.897 27.3666 127.529C26.2675 128.161 25.9895 128.274 25.9895 128.274C25.9895 128.274 25.9011 128.325 26.2043 128.59C26.3685 128.742 26.4064 128.818 26.6591 128.754C26.8107 128.717 27.1518 128.186 28.0994 128.893C29.0469 129.588 29.906 130.864 31.1315 129.285V129.298Z" fill="#E63946"/>
<path d="M27.7329 124.926C26.8106 124.092 25.9136 123.246 25.0419 122.374C25.0419 122.374 24.4986 121.907 23.829 122.159C23.2984 122.362 21.7445 123.069 21.6813 123.094C21.6813 123.094 21.2138 123.271 20.9612 123.031C20.5695 122.69 19.0661 121.098 19.0534 121.086C18.9524 120.972 18.7755 120.959 18.6618 121.073C18.5481 121.174 18.5355 121.351 18.6492 121.465C18.7123 121.528 20.1779 123.094 20.5821 123.448C20.6832 123.549 20.8095 123.612 20.9232 123.65C21.3781 123.815 21.8708 123.612 21.8961 123.6C21.9213 123.6 23.5006 122.867 24.0059 122.665C24.1575 122.602 24.3091 122.614 24.4228 122.652C24.5618 122.69 24.6629 122.766 24.6755 122.779L27.3665 125.343L27.4802 125.394C27.5813 125.419 27.6824 125.394 27.7582 125.305C27.8592 125.192 27.8592 125.015 27.7582 124.926H27.7329Z" fill="#E63946"/>
<path d="M26.8108 125.684C26.2296 125.141 25.6358 124.611 25.0673 124.042C25.0673 124.042 24.3598 123.082 23.2227 123.613C22.0731 124.156 21.7825 124.257 21.7825 124.257C21.7825 124.257 21.6941 124.307 21.972 124.598C22.1236 124.762 22.1615 124.838 22.4016 124.8C22.5658 124.775 22.9322 124.269 23.8292 125.053C24.7135 125.836 25.4842 127.163 26.8108 125.697V125.684Z" fill="#E63946"/>
<path d="M23.7669 121.048C22.9204 120.151 22.0866 119.229 21.2907 118.281C21.2907 118.281 20.7853 117.776 20.0905 117.978C19.5472 118.142 17.9553 118.711 17.8795 118.736C17.8795 118.736 17.3995 118.875 17.1594 118.622C16.8057 118.243 15.4286 116.55 15.4159 116.525C15.3275 116.411 15.1506 116.386 15.0243 116.475C14.898 116.576 14.8853 116.74 14.9738 116.866C15.0243 116.942 16.3761 118.61 16.7425 119.001C16.8436 119.102 16.9446 119.178 17.071 119.229C17.5132 119.431 18.0185 119.267 18.0438 119.254C18.069 119.254 19.6988 118.66 20.2168 118.496C20.381 118.445 20.52 118.471 20.6337 118.521C20.7727 118.572 20.8611 118.648 20.8738 118.673L23.35 121.44L23.4511 121.503C23.5395 121.528 23.6532 121.503 23.729 121.44C23.8427 121.339 23.8554 121.162 23.7543 121.048H23.7669Z" fill="#E63946"/>
<path d="M22.7814 121.718C22.2256 121.136 21.6949 120.543 21.1643 119.936C21.1643 119.936 20.5452 118.913 19.3577 119.355C18.1575 119.81 17.8669 119.886 17.8669 119.886C17.8669 119.886 17.7784 119.924 18.0311 120.239C18.1827 120.416 18.208 120.492 18.448 120.48C18.6123 120.467 19.0292 119.999 19.8504 120.846C20.6716 121.68 21.3286 123.082 22.7688 121.718H22.7814Z" fill="#E63946"/>
<path d="M17.9545 114.023C17.2217 113.025 16.5395 112.002 15.8573 110.966C15.8573 110.966 15.4277 110.385 14.7202 110.498C14.1643 110.587 12.4967 110.953 12.4208 110.966C12.4208 110.966 11.9281 111.041 11.726 110.751C11.4101 110.334 10.2857 108.464 10.2731 108.439C10.1973 108.3 10.0204 108.262 9.89408 108.338C9.75511 108.414 9.71721 108.59 9.79301 108.717C9.83091 108.793 10.9553 110.637 11.2712 111.067C11.347 111.18 11.448 111.269 11.5617 111.345C11.9787 111.597 12.4967 111.509 12.5219 111.496C12.5472 111.496 14.2401 111.117 14.7834 111.029C14.9476 111.004 15.0866 111.041 15.1877 111.105C15.314 111.18 15.3898 111.269 15.4024 111.282L17.4996 114.352L17.6007 114.427C17.6892 114.465 17.8029 114.465 17.8913 114.402C18.0176 114.314 18.0429 114.137 17.9671 114.023H17.9545Z" fill="#E63946"/>
<path d="M16.881 114.554C16.4136 113.897 15.9588 113.253 15.5166 112.583C15.5166 112.583 15.0365 111.484 13.7984 111.775C12.5602 112.065 12.257 112.09 12.257 112.103C12.257 112.103 12.156 112.128 12.3707 112.469C12.4844 112.659 12.4971 112.747 12.7498 112.76C12.914 112.76 13.3941 112.356 14.1016 113.303C14.8091 114.251 15.2639 115.716 16.881 114.554Z" fill="#E63946"/>
<path d="M14.8852 109.399C14.2535 108.338 13.6218 107.264 13.0407 106.178C13.0407 106.178 12.6616 105.571 11.9415 105.622C11.373 105.672 9.69269 105.887 9.61689 105.9C9.61689 105.9 9.11154 105.938 8.9473 105.635C8.66935 105.192 7.68391 103.234 7.68391 103.221C7.62074 103.082 7.4565 103.032 7.31753 103.095C7.17856 103.158 7.11539 103.335 7.19119 103.474C7.2291 103.563 8.18926 105.483 8.46721 105.938C8.54301 106.064 8.63145 106.153 8.73253 106.228C9.12417 106.519 9.64216 106.468 9.68006 106.468C9.70533 106.468 11.4362 106.228 11.9668 106.178C12.131 106.165 12.27 106.216 12.3711 106.279C12.4974 106.355 12.5606 106.456 12.5732 106.481L14.4178 109.715L14.5062 109.804C14.5946 109.854 14.6957 109.854 14.7968 109.804C14.9231 109.715 14.9736 109.551 14.8978 109.437L14.8852 109.399Z" fill="#E63946"/>
<path d="M13.7851 109.841C13.3809 109.159 12.9639 108.464 12.5849 107.769C12.5849 107.769 12.1933 106.645 10.9299 106.822C9.66651 107.011 9.3633 107.024 9.3633 107.024C9.3633 107.024 9.26223 107.037 9.45174 107.403C9.55281 107.605 9.56544 107.693 9.80548 107.719C9.96972 107.731 10.4624 107.365 11.0941 108.363C11.7132 109.361 12.0669 110.852 13.7599 109.829L13.7851 109.841Z" fill="#E63946"/>
<path d="M12.2061 104.535C11.6503 103.436 11.1196 102.312 10.6269 101.175C10.6269 101.175 10.2858 100.543 9.56567 100.53C8.99715 100.53 7.30422 100.619 7.22841 100.619C7.22841 100.619 6.72305 100.619 6.57145 100.303C6.34404 99.8354 5.51021 97.814 5.51021 97.7887C5.45968 97.6498 5.29543 97.574 5.14383 97.6245C5.00486 97.675 4.92906 97.8393 4.97959 97.9909C5.00486 98.0793 5.81342 100.063 6.05347 100.543C6.11663 100.669 6.20507 100.77 6.29351 100.859C6.65989 101.175 7.19051 101.175 7.21578 101.175C7.24104 101.175 8.95925 101.074 9.51514 101.074C9.67938 101.074 9.81835 101.137 9.90679 101.213C10.0205 101.301 10.0837 101.402 10.0963 101.427L11.6755 104.801L11.764 104.902C11.8398 104.952 11.9535 104.965 12.0545 104.914C12.1935 104.838 12.2567 104.687 12.1809 104.548L12.2061 104.535Z" fill="#E63946"/>
<path d="M11.0691 104.902C10.7027 104.182 10.3742 103.462 10.0331 102.742C10.0331 102.742 9.7425 101.579 8.46649 101.668C7.19047 101.756 6.88726 101.731 6.88726 101.744C6.88726 101.744 6.78619 101.744 6.95043 102.123C7.03887 102.325 7.03887 102.413 7.27891 102.476C7.43052 102.514 7.97377 102.186 8.51702 103.222C9.07291 104.27 9.28769 105.786 11.0691 104.902Z" fill="#E63946"/>
<path d="M9.91909 99.4822C9.45164 98.3325 9.02209 97.1702 8.61781 96.0079C8.61781 96.0079 8.33986 95.3509 7.61973 95.2751C7.05121 95.2246 5.35828 95.174 5.28248 95.174C5.28248 95.174 4.77713 95.1235 4.66342 94.8077C4.46128 94.3276 3.80432 92.243 3.80432 92.2177C3.75378 92.0661 3.60218 91.9903 3.45057 92.0282C3.29897 92.0788 3.22316 92.2304 3.26106 92.382C3.2737 92.4704 3.91803 94.5171 4.1328 95.0098C4.18334 95.1488 4.25914 95.2498 4.34757 95.3383C4.70132 95.6794 5.21931 95.7173 5.24458 95.7173C5.26984 95.7173 7.00068 95.7552 7.54393 95.8057C7.70817 95.8057 7.83452 95.8942 7.92295 95.9826C8.03666 96.0837 8.08719 96.1847 8.09983 96.21L9.40111 99.6969L9.47691 99.798C9.55271 99.8612 9.66642 99.8738 9.76749 99.8359C9.90647 99.7728 9.98227 99.6211 9.93173 99.4822H9.91909Z" fill="#E63946"/>
<path d="M8.75673 99.7472C8.45351 99.0018 8.17557 98.2564 7.89762 97.511C7.89762 97.511 7.69549 96.3361 6.41947 96.3108C5.14345 96.2855 4.85287 96.2603 4.85287 96.2603C4.85287 96.2603 4.7518 96.2603 4.87814 96.6519C4.95394 96.8667 4.9413 96.9551 5.18135 97.0309C5.33295 97.0815 5.90148 96.7909 6.3563 97.8774C6.81111 98.9639 6.91219 100.493 8.75673 99.7599V99.7472Z" fill="#E63946"/>
<path d="M8.05009 94.2636C7.68371 93.076 7.34259 91.8885 7.03938 90.6882C7.03938 90.6882 6.81198 90.006 6.10448 89.8797C5.53596 89.7912 3.85565 89.6017 3.77985 89.5891C3.77985 89.5891 3.28714 89.5006 3.18607 89.1722C3.02183 88.6794 2.54174 86.5443 2.54174 86.5191C2.51647 86.3675 2.36486 86.279 2.21325 86.3043C2.06165 86.3422 1.96058 86.4812 1.99848 86.6328C2.02375 86.7212 2.4912 88.8184 2.65544 89.3238C2.69334 89.4628 2.75651 89.5765 2.84495 89.6775C3.16079 90.0565 3.67878 90.1323 3.70405 90.1323C3.72932 90.1323 5.46015 90.3219 5.99077 90.4103C6.15501 90.4356 6.26872 90.524 6.35715 90.6124C6.45822 90.7261 6.49613 90.8272 6.50876 90.8525L7.51946 94.4278L7.58264 94.5289C7.65844 94.5921 7.75951 94.6174 7.86058 94.5921C8.01219 94.5416 8.08799 94.3899 8.05009 94.2636Z" fill="#E63946"/>
<path d="M6.87506 94.4281C6.64765 93.6575 6.40761 92.8994 6.20547 92.1288C6.20547 92.1288 6.09176 90.9412 4.82837 90.8148C3.56499 90.6885 3.26178 90.638 3.26178 90.638C3.26178 90.638 3.16071 90.638 3.26178 91.0296C3.31231 91.2444 3.29968 91.3328 3.52709 91.4339C3.6787 91.4971 4.24722 91.257 4.62624 92.3688C4.97998 93.4932 4.97998 95.0219 6.86242 94.4407L6.87506 94.4281Z" fill="#E63946"/>
<path d="M6.60951 88.9076C6.3442 87.6947 6.09153 86.4945 5.88938 85.269C5.88938 85.269 5.71251 84.5741 5.01765 84.3846C4.46176 84.2457 2.80673 83.9172 2.73092 83.9045C2.73092 83.9045 2.25083 83.7782 2.17503 83.4371C2.04869 82.9317 1.74548 80.7714 1.74548 80.7461C1.73284 80.5945 1.58124 80.4934 1.42963 80.506C1.27802 80.5187 1.16433 80.6577 1.18959 80.8219C1.18959 80.9103 1.4928 83.0328 1.61914 83.5634C1.64441 83.7024 1.70758 83.8288 1.78339 83.9298C2.06133 84.3215 2.57931 84.4478 2.60458 84.4478C2.62985 84.4478 4.33542 84.7763 4.86604 84.9026C5.03028 84.9405 5.14399 85.0416 5.20716 85.13C5.29559 85.2437 5.33349 85.3574 5.33349 85.3827L6.05362 89.0339L6.10416 89.1476C6.16733 89.2234 6.2684 89.2487 6.3821 89.236C6.53371 89.1981 6.63478 89.0592 6.59688 88.9202L6.60951 88.9076Z" fill="#E63946"/>
<path d="M5.42185 88.9826C5.24498 88.1993 5.08074 87.416 4.94177 86.6327C4.94177 86.6327 4.92914 85.4325 3.67839 85.2178C2.42763 84.9903 2.12442 84.9145 2.12442 84.9145C2.12442 84.9145 2.02335 84.9019 2.08652 85.3062C2.12442 85.5336 2.09916 85.622 2.32656 85.7231C2.47817 85.7989 3.05932 85.5968 3.3499 86.7464C3.62785 87.8961 3.48887 89.4248 5.42185 88.9826Z" fill="#E63946"/>
<path d="M5.61155 83.4494C5.43468 82.2239 5.28307 80.9984 5.182 79.7603C5.182 79.7603 5.05566 79.0528 4.37343 78.8128C3.84281 78.6359 2.20041 78.1811 2.13724 78.1558C2.13724 78.1558 1.66979 77.9916 1.61925 77.6505C1.54345 77.1325 1.40448 74.9595 1.41712 74.9342C1.41712 74.7826 1.27814 74.6562 1.12653 74.6689C0.974927 74.6689 0.84859 74.8078 0.861224 74.9594C0.861224 75.0479 1.00019 77.1956 1.076 77.7136C1.08863 77.8526 1.13916 77.9789 1.20233 78.0927C1.45501 78.5096 1.94773 78.6738 1.98564 78.6864C2.0109 78.6864 3.67857 79.1539 4.19656 79.3181C4.34816 79.3687 4.46187 79.4697 4.52504 79.5708C4.61348 79.6971 4.63874 79.8108 4.63874 79.8235L5.0683 83.5126L5.11883 83.6263C5.182 83.7021 5.28307 83.7526 5.38414 83.74C5.53575 83.7147 5.64945 83.5884 5.62418 83.4368L5.61155 83.4494Z" fill="#E63946"/>
<path d="M4.4241 83.4236C4.29776 82.6276 4.22196 81.8317 4.12089 81.0358C4.12089 81.0358 4.20932 79.8482 2.97121 79.5197C1.73309 79.2038 1.45515 79.0901 1.45515 79.0901C1.45515 79.0901 1.35407 79.0649 1.39198 79.4818C1.41724 79.7092 1.39198 79.785 1.59412 79.924C1.73309 79.9998 2.35215 79.8608 2.52902 81.0231C2.71853 82.1854 2.44058 83.7015 4.41146 83.4236H4.4241Z" fill="#E63946"/>
<path d="M5.05516 77.928C4.97936 76.6899 4.92882 75.4517 4.91619 74.2136C4.91619 74.2136 4.85302 73.4935 4.19606 73.2029C3.67807 72.9755 2.08621 72.3944 2.01041 72.3691C2.01041 72.3691 1.55559 72.1669 1.53032 71.8258C1.50505 71.3078 1.53032 69.1222 1.53032 69.0969C1.53032 68.9453 1.41661 68.819 1.25237 68.8063C1.10077 68.8063 0.961798 68.9201 0.961798 69.0717C0.949165 69.1601 0.923897 71.3078 0.961798 71.8385C0.961798 71.9774 1.01234 72.1038 1.06287 72.2175C1.27765 72.647 1.77036 72.8492 1.79563 72.8618C1.82089 72.8744 3.45067 73.4556 3.94339 73.6704C4.09499 73.7335 4.19606 73.8473 4.25923 73.9483C4.33504 74.0747 4.34767 74.201 4.34767 74.2136L4.48664 77.928L4.52454 78.0543C4.57508 78.1301 4.67614 78.1933 4.77721 78.1806C4.92882 78.1806 5.04252 78.0417 5.04252 77.9027L5.05516 77.928Z" fill="#E63946"/>
<path d="M3.8679 77.8149C3.80473 77.019 3.7921 76.2231 3.7542 75.4145C3.7542 75.4145 3.94371 74.2269 2.73086 73.81C1.51802 73.3931 1.2527 73.2667 1.2527 73.2667C1.2527 73.2667 1.15163 73.2415 1.15163 73.6458C1.15163 73.8732 1.11373 73.949 1.32851 74.1006C1.45485 74.189 2.08654 74.1006 2.17497 75.2755C2.27604 76.4505 1.87176 77.9413 3.8679 77.8149Z" fill="#E63946"/>
<path d="M4.92924 72.3821C4.94187 71.1439 5.00504 69.9058 5.09348 68.6677C5.09348 68.6677 5.09348 67.9476 4.44916 67.6065C3.9438 67.3412 2.40247 66.6337 2.3393 66.5957C2.3393 66.5957 1.89712 66.3557 1.90975 66.0146C1.90975 65.4966 2.12453 63.3236 2.13716 63.2983C2.1498 63.1467 2.03609 63.0077 1.88448 62.9951C1.73287 62.9825 1.5939 63.0835 1.58127 63.2351C1.556 63.3236 1.36649 65.4587 1.35386 66.002C1.35386 66.1409 1.37913 66.2799 1.42966 66.3936C1.61917 66.8484 2.08662 67.0885 2.11189 67.1011C2.13716 67.1137 3.71639 67.8212 4.19648 68.0739C4.34808 68.1497 4.42389 68.2761 4.47442 68.3771C4.53759 68.5161 4.55022 68.6298 4.55022 68.6551L4.38599 72.3694L4.41125 72.4958C4.46178 72.5842 4.55023 72.6474 4.66393 72.6474C4.81554 72.6474 4.94187 72.5337 4.9545 72.3821H4.92924Z" fill="#E63946"/>
<path d="M3.75471 72.1804C3.76735 71.3845 3.80525 70.5759 3.84315 69.78C3.84315 69.78 4.1211 68.6177 2.94615 68.0997C1.78384 67.5817 1.51852 67.4427 1.51852 67.4427C1.51852 67.4427 1.41745 67.4048 1.39218 67.8091C1.37955 68.0365 1.32901 68.1123 1.53116 68.2766C1.65749 68.3776 2.28919 68.3397 2.27656 69.5147C2.27656 70.6896 1.75857 72.1425 3.75471 72.1804Z" fill="#E63946"/>
<path d="M5.24538 66.8357C5.35909 65.6103 5.52333 64.3721 5.7002 63.1467C5.7002 63.1467 5.76337 62.4265 5.14431 62.0349C4.66422 61.7317 3.17343 60.8978 3.11026 60.8599C3.11026 60.8599 2.69335 60.582 2.73125 60.2409C2.76915 59.7229 3.1608 57.5751 3.17343 57.5499C3.1987 57.3983 3.09763 57.2593 2.94602 57.2214C2.79442 57.1961 2.65544 57.2972 2.61754 57.4362C2.59227 57.5246 2.22589 59.6345 2.17536 60.1651C2.16272 60.304 2.17536 60.443 2.21326 60.5567C2.35223 61.0242 2.80705 61.3021 2.83231 61.3148C2.85758 61.3274 4.37365 62.1739 4.8411 62.4518C4.98007 62.5402 5.05587 62.6666 5.09377 62.7803C5.14431 62.9192 5.13167 63.0329 5.13167 63.0582L4.67685 66.7473L4.70213 66.8736C4.74003 66.9621 4.82847 67.0253 4.94217 67.0379C5.09378 67.0505 5.23275 66.9494 5.24538 66.7978V66.8357Z" fill="#E63946"/>
<path d="M4.09516 66.5458C4.1836 65.7498 4.2594 64.9539 4.3731 64.158C4.3731 64.158 4.72685 63.0209 3.61508 62.4145C2.49066 61.8081 2.25062 61.6438 2.25062 61.6438C2.25062 61.6438 2.16219 61.5933 2.09902 61.9976C2.06112 62.2124 2.01058 62.3008 2.18746 62.465C2.30116 62.5787 2.93285 62.5787 2.84441 63.7663C2.74334 64.9413 2.13692 66.3436 4.1078 66.5458H4.09516Z" fill="#E63946"/>
<path d="M6.00257 61.3401C6.22998 60.1272 6.47002 58.9144 6.7606 57.7015C6.7606 57.7015 6.87431 56.994 6.29315 56.5518C5.83833 56.2107 4.42334 55.2632 4.3728 55.2253C4.3728 55.2253 3.98115 54.9221 4.04432 54.581C4.13275 54.063 4.68865 51.9531 4.70128 51.9278C4.73918 51.7762 4.65075 51.6246 4.51177 51.5867C4.36017 51.5488 4.20856 51.6373 4.15803 51.7762C4.13276 51.8647 3.57687 53.9366 3.50107 54.4672C3.4758 54.6062 3.4758 54.7452 3.50107 54.8589C3.60214 55.339 4.03169 55.6422 4.05695 55.6675C4.08222 55.6801 5.52248 56.6403 5.96467 56.9688C6.10364 57.0698 6.16681 57.1961 6.19208 57.3099C6.22998 57.4488 6.21734 57.5752 6.21734 57.5878L5.45931 61.2264V61.3527C5.49721 61.4411 5.58565 61.5169 5.68672 61.5422C5.83833 61.5675 5.9773 61.479 6.0152 61.3274L6.00257 61.3401Z" fill="#E63946"/>
<path d="M4.87838 60.9487C5.02998 60.1654 5.16896 59.3695 5.34583 58.5988C5.34583 58.5988 5.78801 57.4871 4.7394 56.8048C3.66553 56.11 3.43812 55.9205 3.43812 55.9205C3.43812 55.9205 3.34968 55.8699 3.24861 56.2616C3.19808 56.4764 3.14754 56.5521 3.31178 56.7417C3.42549 56.868 4.03191 56.9185 3.85504 58.0808C3.6529 59.2432 2.9454 60.595 4.89101 60.9487H4.87838Z" fill="#E63946"/>
<path d="M7.20294 55.9328C7.51878 54.7325 7.8599 53.545 8.25155 52.37C8.25155 52.37 8.4158 51.6625 7.87254 51.1824C7.45562 50.8034 6.12907 49.7548 6.0659 49.7043C6.0659 49.7043 5.69952 49.3632 5.78795 49.0347C5.91429 48.5293 6.63442 46.47 6.65969 46.4448C6.71023 46.3058 6.63442 46.1415 6.49545 46.091C6.34384 46.0405 6.19223 46.1163 6.12906 46.2552C6.09116 46.331 5.38367 48.3651 5.2447 48.8831C5.2068 49.022 5.20679 49.1484 5.21943 49.2747C5.28259 49.7548 5.68688 50.0959 5.69952 50.1212C5.71215 50.1465 7.0766 51.2077 7.49352 51.5741C7.61986 51.6878 7.6704 51.8141 7.69567 51.9405C7.72093 52.0921 7.69567 52.2058 7.69567 52.2184L6.64706 55.7938V55.9201C6.67232 56.0086 6.74812 56.097 6.84919 56.1223C7.0008 56.1602 7.15241 56.0844 7.19031 55.9328H7.20294Z" fill="#E63946"/>
<path d="M6.11689 55.4529C6.31903 54.6822 6.54644 53.9115 6.77384 53.1409C6.77384 53.1409 7.3171 52.0796 6.30639 51.2963C5.29568 50.513 5.08091 50.3109 5.06828 50.3109C5.06828 50.3109 4.99248 50.2477 4.8535 50.6394C4.79034 50.8541 4.72716 50.9173 4.87877 51.1195C4.97984 51.2458 5.59889 51.3595 5.30831 52.4965C5.03037 53.6336 4.19654 54.9349 6.11689 55.4402V55.4529Z" fill="#E63946"/>
<path d="M8.8454 50.6268C9.24968 49.4519 9.7045 48.3022 10.172 47.1651C10.172 47.1651 10.3867 46.4829 9.89401 45.9523C9.50236 45.548 8.26424 44.3857 8.21371 44.3352C8.21371 44.3352 7.85996 43.9688 7.9863 43.6403C8.16317 43.1476 9.04754 41.1514 9.06017 41.1388C9.12334 40.9998 9.06017 40.8356 8.9212 40.7724C8.78223 40.7092 8.618 40.7724 8.55483 40.9114C8.50429 40.9872 7.64519 42.9581 7.45568 43.4634C7.40514 43.5898 7.39251 43.7287 7.40514 43.8551C7.44304 44.3478 7.80943 44.7142 7.82206 44.7394C7.8347 44.7647 9.11071 45.9397 9.48973 46.3313C9.60343 46.4576 9.65397 46.5966 9.6666 46.7103C9.67924 46.8619 9.65396 46.9756 9.64133 46.9883L8.31478 50.4626V50.5889C8.31478 50.69 8.39058 50.7658 8.49165 50.8037C8.64326 50.8542 8.79486 50.7911 8.8454 50.6521V50.6268Z" fill="#E63946"/>
<path d="M7.79687 50.0579C8.04955 49.2999 8.35276 48.5545 8.63071 47.8091C8.63071 47.8091 9.2624 46.7984 8.31486 45.9393C7.37996 45.0802 7.17781 44.8528 7.17781 44.8654C7.17781 44.8654 7.10201 44.8022 6.93777 45.1686C6.84933 45.3708 6.78617 45.4339 6.9125 45.6487C7.00094 45.7877 7.60737 45.9393 7.22835 47.0637C6.86197 48.1755 5.91443 49.401 7.78424 50.0579H7.79687Z" fill="#E63946"/>
<path d="M10.8923 45.4841C11.3976 44.3597 11.9282 43.2353 12.4968 42.1361C12.4968 42.1361 12.7747 41.4792 12.3199 40.9107C11.9661 40.4685 10.8165 39.2051 10.7659 39.1546C10.7659 39.1546 10.4627 38.7629 10.6017 38.4471C10.8038 37.967 11.8524 36.0466 11.8651 36.034C11.9409 35.895 11.8903 35.7308 11.764 35.655C11.625 35.5792 11.4608 35.6171 11.385 35.756C11.3345 35.8319 10.3111 37.7143 10.0963 38.207C10.0332 38.3334 10.0079 38.4723 10.0079 38.5987C9.99526 39.0787 10.3364 39.4957 10.349 39.5083C10.3616 39.5336 11.5366 40.8096 11.8903 41.2265C11.9914 41.3528 12.0293 41.4918 12.0293 41.6182C12.0293 41.7698 11.9914 41.8835 11.9788 41.8961L10.3743 45.2567L10.349 45.3831C10.349 45.4841 10.4248 45.5725 10.5259 45.6105C10.6649 45.6736 10.8291 45.6104 10.8923 45.4841Z" fill="#E63946"/>
<path d="M9.89382 44.8281C10.2349 44.108 10.5508 43.3752 10.9172 42.6551C10.9172 42.6551 11.612 41.6823 10.7529 40.76C9.88118 39.8251 9.70431 39.5851 9.70431 39.5851C9.70431 39.5851 9.62851 39.5219 9.439 39.8757C9.33793 40.0778 9.26212 40.1283 9.37582 40.3557C9.45163 40.4947 10.0454 40.6969 9.57797 41.796C9.11052 42.8699 8.08718 44.0196 9.89382 44.8281Z" fill="#E63946"/>
<path d="M13.3555 40.5071C13.9493 39.4206 14.5684 38.3467 15.2253 37.2981C15.2253 37.2981 15.5538 36.6538 15.1495 36.06C14.8337 35.5925 13.7977 34.2534 13.7472 34.1902C13.7472 34.1902 13.4692 33.7733 13.6335 33.4701C13.8735 33.0152 15.0737 31.1833 15.099 31.1707C15.1874 31.0444 15.1495 30.8675 15.0232 30.779C14.8968 30.6906 14.72 30.7285 14.6315 30.8548C14.5684 30.918 13.3934 32.7247 13.1534 33.1921C13.0776 33.3184 13.0523 33.4448 13.0397 33.5711C12.9891 34.0512 13.2923 34.4808 13.305 34.506C13.305 34.5313 14.3915 35.8958 14.6947 36.3379C14.7831 36.4769 14.8084 36.6159 14.8084 36.7422C14.8084 36.8938 14.7452 36.9949 14.7452 37.0202L12.8754 40.2292L12.8502 40.3555C12.8502 40.4566 12.9007 40.545 13.0018 40.5955C13.1407 40.6713 13.305 40.6208 13.3808 40.4945L13.3555 40.5071Z" fill="#E63946"/>
<path d="M12.4216 39.787C12.8006 39.0795 13.2049 38.3846 13.6092 37.7024C13.6092 37.7024 14.3925 36.7928 13.6092 35.8073C12.8132 34.8092 12.649 34.5566 12.649 34.5566C12.649 34.5566 12.5858 34.4808 12.371 34.8219C12.2573 35.0114 12.1815 35.0619 12.27 35.2893C12.3331 35.4409 12.9017 35.6936 12.3584 36.7296C11.8025 37.7656 10.6907 38.8268 12.4342 39.7743L12.4216 39.787Z" fill="#E63946"/>
<path d="M18.2585 32.8133C18.9787 31.8152 19.7493 30.8424 20.5326 29.8696C20.5326 29.8696 20.9369 29.2758 20.6211 28.6314C20.3684 28.1261 19.5093 26.6606 19.4714 26.5848C19.4714 26.5848 19.244 26.1299 19.4587 25.8646C19.762 25.4477 21.1896 23.78 21.2149 23.7674C21.3159 23.6537 21.3033 23.4768 21.1896 23.3758C21.0759 23.2747 20.899 23.2873 20.7979 23.401C20.7348 23.4642 19.3324 25.094 19.0166 25.5235C18.9281 25.6372 18.8776 25.7636 18.8397 25.8773C18.726 26.3574 18.9787 26.8248 18.9913 26.8501C18.9913 26.8753 19.8757 28.3661 20.1283 28.8462C20.2041 28.9978 20.2041 29.1368 20.1789 29.2505C20.1536 29.4021 20.0904 29.5032 20.0778 29.5158L17.8037 32.4595L17.7532 32.5732C17.7532 32.6743 17.7784 32.7753 17.8669 32.8385C17.9932 32.927 18.1575 32.9017 18.2459 32.788L18.2585 32.8133Z" fill="#E63946"/>
<path d="M17.4241 31.9661C17.8915 31.3217 18.3842 30.69 18.8769 30.0583C18.8769 30.0583 19.7739 29.2624 19.117 28.1759C18.46 27.0894 18.3337 26.8114 18.3337 26.8114C18.3337 26.8114 18.2832 26.723 18.0178 27.0389C17.8789 27.2157 17.7904 27.2536 17.8536 27.4937C17.8915 27.6453 18.4348 27.9738 17.7525 28.9339C17.0703 29.8941 15.8196 30.7911 17.4241 31.9661Z" fill="#E63946"/>
<path d="M21.7193 28.4791C22.5278 27.5442 23.3616 26.6219 24.2207 25.7375C24.2207 25.7375 24.6756 25.1816 24.3976 24.512C24.1828 23.9814 23.4501 22.4527 23.4248 22.3896C23.4248 22.3896 23.2353 21.9221 23.4627 21.6694C23.7912 21.2651 25.3578 19.7364 25.3704 19.7238C25.4841 19.6227 25.4841 19.4459 25.3704 19.3322C25.2694 19.2185 25.0925 19.2185 24.9788 19.3322C24.903 19.3953 23.3869 20.8988 23.0332 21.303C22.9321 21.4167 22.8816 21.5304 22.831 21.6441C22.6794 22.1116 22.8816 22.5917 22.8942 22.617C22.8942 22.6422 23.6649 24.2088 23.8796 24.7142C23.9428 24.8658 23.9302 25.0174 23.9049 25.1311C23.867 25.2701 23.7912 25.3711 23.7786 25.3838L21.2771 28.1379L21.2265 28.2517C21.2013 28.3527 21.2392 28.4538 21.3276 28.5296C21.4413 28.6307 21.6182 28.618 21.7066 28.5043L21.7193 28.4791Z" fill="#E63946"/>
<path d="M20.9492 27.557C21.4798 26.9632 21.9978 26.3568 22.5537 25.7756C22.5537 25.7756 23.5013 25.0555 22.9454 23.9184C22.3768 22.7814 22.2758 22.4908 22.2758 22.4908C22.2758 22.4908 22.2252 22.4024 21.9473 22.6929C21.7957 22.8572 21.7072 22.8824 21.7451 23.1351C21.783 23.2994 22.2758 23.6531 21.5304 24.5628C20.7723 25.4598 19.4584 26.2557 20.9492 27.557Z" fill="#E63946"/>
<path d="M25.5097 24.4238C26.3941 23.5521 27.2911 22.7056 28.2134 21.8844C28.2134 21.8844 28.7061 21.3538 28.4913 20.6716C28.3144 20.1283 27.708 18.5491 27.6954 18.4733C27.6954 18.4733 27.5438 17.9932 27.7964 17.7532C28.1628 17.3868 29.8305 15.9718 29.8558 15.9718C29.9695 15.8707 29.9947 15.6939 29.8937 15.5802C29.7926 15.4665 29.6157 15.4412 29.502 15.5423C29.4262 15.5928 27.7838 16.9825 27.4048 17.3489C27.3037 17.45 27.2279 17.5637 27.19 17.6774C27.0005 18.1322 27.1648 18.6249 27.19 18.6502C27.19 18.6755 27.8217 20.2799 27.9986 20.8106C28.0491 20.9748 28.0239 21.1138 27.9986 21.2275C27.9481 21.3665 27.8723 21.4549 27.8596 21.4675L25.1433 24.0069L25.0802 24.108C25.0549 24.1964 25.0802 24.3101 25.156 24.3859C25.2697 24.4997 25.4339 24.4996 25.5476 24.3986L25.5097 24.4238Z" fill="#E63946"/>
<path d="M24.828 23.4634C25.3965 22.8948 25.9776 22.3516 26.5714 21.8083C26.5714 21.8083 27.5821 21.1766 27.1147 19.9891C26.6346 18.8015 26.5588 18.5109 26.5588 18.5109C26.5588 18.5109 26.5209 18.4225 26.2051 18.6878C26.0408 18.8394 25.9524 18.8646 25.9776 19.1173C25.9903 19.2816 26.4704 19.6858 25.6365 20.5197C24.8153 21.3661 23.4382 22.0357 24.828 23.4634Z" fill="#E63946"/>
<path d="M29.6155 20.6971C30.563 19.9012 31.5358 19.1305 32.5213 18.3851C32.5213 18.3851 33.0519 17.905 32.9003 17.2102C32.7739 16.6543 32.2939 15.0245 32.2686 14.9487C32.2686 14.9487 32.1675 14.456 32.4202 14.2412C32.8119 13.9001 34.5932 12.6367 34.6185 12.6241C34.7448 12.5356 34.7701 12.3588 34.6817 12.2324C34.5932 12.1061 34.4163 12.0808 34.29 12.1693C34.2142 12.2198 32.4707 13.4579 32.0538 13.8117C31.9401 13.9001 31.8643 14.0012 31.8011 14.1149C31.5737 14.5444 31.7127 15.0624 31.7127 15.0877C31.7127 15.113 32.2181 16.7806 32.3444 17.2986C32.3823 17.4628 32.3444 17.6018 32.2939 17.7155C32.2307 17.8545 32.1423 17.9303 32.1296 17.9429L29.2238 20.2676L29.148 20.3686C29.1101 20.4571 29.1228 20.5708 29.1986 20.6592C29.2996 20.7729 29.4765 20.7982 29.5776 20.6971H29.6155Z" fill="#E63946"/>
<path d="M29.0089 19.6737C29.6153 19.1557 30.247 18.663 30.8787 18.1576C30.8787 18.1576 31.9399 17.5891 31.5609 16.3889C31.1819 15.176 31.1314 14.8728 31.1187 14.8728C31.1187 14.8728 31.0808 14.7844 30.7524 15.0118C30.5755 15.1508 30.487 15.1634 30.487 15.4161C30.487 15.5803 30.9419 16.0225 30.0449 16.7932C29.1605 17.5638 27.7329 18.1323 28.9962 19.661L29.0089 19.6737Z" fill="#E63946"/>
<path d="M34.0003 17.2984C35.011 16.5909 36.0344 15.896 37.083 15.2264C37.083 15.2264 37.6515 14.7968 37.5504 14.0767C37.462 13.5082 37.1209 11.8532 37.1082 11.7774C37.1082 11.7774 37.0451 11.2846 37.323 11.0825C37.7399 10.7793 39.6224 9.65487 39.635 9.64224C39.774 9.56643 39.8119 9.4022 39.7361 9.26323C39.6603 9.12426 39.4834 9.08635 39.3571 9.16216C39.2686 9.20006 37.4241 10.2992 36.9945 10.615C36.8808 10.6909 36.7924 10.7919 36.7166 10.9056C36.4639 11.3225 36.5397 11.8405 36.5524 11.8658C36.5524 11.8911 36.9187 13.5966 37.0072 14.1273C37.0324 14.2915 36.9819 14.4305 36.9314 14.5315C36.8556 14.6579 36.7671 14.7337 36.7545 14.7463L33.6718 16.8183L33.596 16.9193C33.5581 17.0078 33.5581 17.1215 33.6213 17.2099C33.7097 17.3363 33.874 17.3742 34.0003 17.2857V17.2984Z" fill="#E63946"/>
<path d="M33.482 16.2375C34.1389 15.7827 34.7959 15.3153 35.4655 14.8857C35.4655 14.8857 36.5646 14.4056 36.2867 13.1675C36.0087 11.9294 35.9708 11.6262 35.9708 11.6262C35.9708 11.6262 35.9456 11.5251 35.6045 11.7399C35.415 11.8536 35.3265 11.8662 35.3139 12.1189C35.3139 12.2831 35.7055 12.7506 34.758 13.4581C33.8104 14.153 32.3449 14.6204 33.482 16.2249V16.2375Z" fill="#E63946"/>
<path d="M38.6495 14.2662C39.7108 13.6345 40.7846 13.0155 41.8838 12.4469C41.8838 12.4469 42.4776 12.0553 42.4397 11.3352C42.4018 10.7666 42.187 9.08633 42.187 9.01053C42.187 9.01053 42.1617 8.50517 42.4523 8.3283C42.8945 8.06299 44.8527 7.09019 44.878 7.09019C45.017 7.02702 45.0801 6.86278 45.0043 6.71117C44.9412 6.5722 44.7769 6.50903 44.638 6.5722C44.5495 6.59746 42.6292 7.55764 42.1744 7.83558C42.048 7.91138 41.9596 7.99982 41.8838 8.10089C41.5932 8.49254 41.6437 9.02316 41.6437 9.04843C41.6437 9.08633 41.8711 10.7919 41.909 11.3352C41.909 11.4994 41.8711 11.6384 41.7953 11.7394C41.7195 11.8658 41.6185 11.9289 41.5932 11.9416L38.3589 13.7609L38.2705 13.8493C38.22 13.9377 38.22 14.0388 38.2705 14.1399C38.3463 14.2788 38.5232 14.3167 38.6369 14.2409L38.6495 14.2662Z" fill="#E63946"/>
<path d="M38.2063 13.1673C38.8885 12.7503 39.596 12.3587 40.2909 11.9797C40.2909 11.9797 41.4279 11.6007 41.2511 10.3373C41.0742 9.0739 41.0616 8.77069 41.0616 8.77069C41.0616 8.77069 41.0489 8.66962 40.6825 8.85913C40.4804 8.9602 40.392 8.97284 40.3541 9.22551C40.3288 9.38975 40.6952 9.8951 39.6971 10.5142C38.699 11.1332 37.1956 11.4743 38.2063 13.1799V13.1673Z" fill="#E63946"/>
<path d="M43.5262 11.6133C44.6379 11.0574 45.7623 10.5521 46.8994 10.0593C46.8994 10.0593 47.5311 9.73085 47.5437 9.01072C47.5437 8.4422 47.4679 6.73663 47.4679 6.67346C47.4679 6.67346 47.4679 6.16811 47.7964 6.02914C48.2639 5.78909 50.2979 4.98054 50.3232 4.98054C50.4621 4.93 50.5379 4.76576 50.4874 4.61415C50.4369 4.47518 50.2726 4.39937 50.1337 4.44991C50.0452 4.47517 48.0491 5.27111 47.569 5.51115C47.4426 5.57432 47.3416 5.65013 47.2531 5.7512C46.9373 6.11758 46.9373 6.6482 46.9373 6.67346C46.9373 6.69873 47.0257 8.42957 47.0131 8.97282C47.0131 9.13706 46.9499 9.2634 46.8741 9.36447C46.7857 9.47817 46.6846 9.54135 46.6594 9.55398L43.2861 11.1079L43.1977 11.1837C43.1471 11.2595 43.1345 11.3733 43.1851 11.4743C43.2609 11.6133 43.4125 11.6765 43.5514 11.6133H43.5262Z" fill="#E63946"/>
<path d="M43.1721 10.4766C43.8922 10.1228 44.6123 9.78171 45.3451 9.45323C45.3451 9.45323 46.5074 9.16264 46.4316 7.89926C46.3558 6.63588 46.3684 6.33267 46.3684 6.33267C46.3684 6.33267 46.3684 6.2316 45.9768 6.3832C45.7746 6.47164 45.6862 6.459 45.623 6.71168C45.5851 6.86328 45.9136 7.40654 44.865 7.9498C43.8164 8.49305 42.2877 8.6952 43.1721 10.4892V10.4766Z" fill="#E63946"/>
<path d="M48.5914 9.36417C49.741 8.90935 50.9033 8.4798 52.0783 8.08816C52.0783 8.08816 52.7352 7.81021 52.8111 7.09008C52.8616 6.52156 52.9248 4.82863 52.9248 4.75282C52.9248 4.75282 52.9753 4.2601 53.3038 4.13376C53.7839 3.93162 55.8684 3.29993 55.8937 3.29993C56.0453 3.26203 56.1211 3.11042 56.0832 2.95881C56.0453 2.8072 55.8811 2.71877 55.7421 2.76931C55.6537 2.79458 53.5943 3.41364 53.1016 3.62841C52.9627 3.67895 52.8616 3.75475 52.7732 3.84318C52.4194 4.1843 52.3815 4.70228 52.3815 4.72755C52.3815 4.75282 52.331 6.49629 52.2804 7.03954C52.2678 7.20378 52.192 7.33013 52.1036 7.41856C52.0025 7.51963 51.8888 7.57017 51.8761 7.5828L48.3766 8.85882L48.2755 8.93462C48.2123 9.01042 48.1997 9.12413 48.2376 9.2252C48.2881 9.36418 48.4524 9.43998 48.5914 9.38944V9.36417Z" fill="#E63946"/>
<path d="M48.3393 8.20177C49.0847 7.92383 49.8301 7.62062 50.5882 7.36794C50.5882 7.36794 51.7631 7.1658 51.801 5.90241C51.8263 4.6264 51.8642 4.32318 51.8642 4.32318C51.8642 4.32318 51.8642 4.22212 51.4726 4.34846C51.2578 4.41163 51.1693 4.41162 51.0935 4.65167C51.043 4.80327 51.3209 5.35916 50.2344 5.82661C49.1479 6.2688 47.6192 6.36987 48.3393 8.21441V8.20177Z" fill="#E63946"/>
<path d="M53.8349 7.54513C55.0224 7.19139 56.21 6.85027 57.4102 6.55969C57.4102 6.55969 58.0925 6.33229 58.2188 5.61216C58.3199 5.05627 58.522 3.37596 58.5346 3.30016C58.5346 3.30016 58.6231 2.80744 58.9516 2.70637C59.4443 2.55476 61.5794 2.07468 61.6047 2.08731C61.7563 2.06205 61.8574 1.91044 61.8195 1.75883C61.7942 1.60722 61.6426 1.50616 61.491 1.54406C61.4025 1.54406 59.3053 2.01151 58.7873 2.17575C58.6483 2.21365 58.5347 2.27682 58.4336 2.36526C58.0546 2.68111 57.9788 3.19909 57.9661 3.22436C57.9661 3.24963 57.764 4.96783 57.6755 5.51108C57.6503 5.67532 57.5619 5.78903 57.4734 5.87747C57.3597 5.97854 57.246 6.01643 57.2334 6.02907L53.6454 7.01451L53.5443 7.07768C53.4811 7.14085 53.4432 7.25455 53.4811 7.35562C53.5317 7.50723 53.6833 7.59567 53.8222 7.54513H53.8349Z" fill="#E63946"/>
<path d="M53.6701 6.3707C54.4408 6.13065 55.1988 5.91587 55.9821 5.71373C55.9821 5.71373 57.1697 5.61267 57.3087 4.34928C57.435 3.0859 57.4982 2.78268 57.4982 2.78268C57.4982 2.78268 57.4982 2.68161 57.1066 2.78268C56.8918 2.83322 56.8033 2.82058 56.7023 3.04799C56.6391 3.1996 56.8792 3.78075 55.7547 4.1345C54.6303 4.50088 53.1016 4.46299 53.6701 6.3707Z" fill="#E63946"/>
<path d="M59.2037 6.1428C60.4166 5.86485 61.6294 5.65008 62.8549 5.44793C62.8549 5.44793 63.5498 5.27107 63.7266 4.57621C63.8656 4.03295 64.2067 2.36528 64.2194 2.28947C64.2194 2.28947 64.3457 1.80939 64.6868 1.73359C65.1922 1.61989 67.3652 1.31667 67.3904 1.32931C67.5421 1.31667 67.6558 1.16507 67.6305 1.01346C67.6179 0.861857 67.4789 0.748149 67.3146 0.773417C67.2136 0.773417 65.0911 1.07663 64.5731 1.1777C64.4341 1.20297 64.3078 1.26613 64.2067 1.34194C63.8151 1.61988 63.6887 2.13787 63.6761 2.16314C63.6761 2.18841 63.335 3.88134 63.2087 4.41196C63.1707 4.5762 63.0697 4.68991 62.9813 4.75308C62.8675 4.84152 62.7538 4.87942 62.7286 4.87942L59.0774 5.57427L58.9637 5.62481C58.8879 5.68798 58.85 5.78905 58.8753 5.90275C58.9132 6.05436 59.0521 6.15543 59.1911 6.11753L59.2037 6.1428Z" fill="#E63946"/>
<path d="M59.1279 4.95544C59.9112 4.77856 60.6945 4.6396 61.4778 4.48799C61.4778 4.48799 62.678 4.48798 62.9055 3.23723C63.1329 1.97385 63.2213 1.6959 63.2213 1.6959C63.2213 1.6959 63.2339 1.59483 62.8297 1.658C62.6149 1.69591 62.5264 1.67064 62.4127 1.89805C62.3369 2.03702 62.5264 2.64345 61.3768 2.90876C60.2271 3.18671 58.6984 3.02246 59.1153 4.96807L59.1279 4.95544Z" fill="#E63946"/>
<path d="M64.6616 5.18309C65.8871 5.01885 67.1126 4.87987 68.3507 4.7788C68.3507 4.7788 69.0582 4.6651 69.2982 3.98287C69.4878 3.45225 69.9552 1.80985 69.9678 1.74668C69.9678 1.74668 70.1447 1.2666 70.4732 1.2287C70.9912 1.15289 73.1642 1.02655 73.1895 1.03919C73.3411 1.03919 73.4548 0.90021 73.4548 0.748604C73.4548 0.596998 73.3158 0.47066 73.1642 0.483294C73.0758 0.483294 70.928 0.609635 70.3974 0.672804C70.2584 0.685438 70.1321 0.735971 70.0184 0.79914C69.6014 1.05182 69.4372 1.54454 69.4246 1.56981C69.4246 1.59507 68.9445 3.26274 68.7676 3.78073C68.7171 3.93233 68.6034 4.03341 68.5023 4.10921C68.376 4.18501 68.2623 4.21028 68.237 4.22291L64.5353 4.62719L64.4216 4.67773C64.3458 4.7409 64.2952 4.84197 64.3079 4.94304C64.3331 5.09465 64.4595 5.20835 64.6111 5.18309H64.6616Z" fill="#E63946"/>
<path d="M64.6878 3.98285C65.4838 3.88178 66.2797 3.7807 67.0756 3.7049C67.0756 3.7049 68.2632 3.80597 68.6043 2.56785C68.9328 1.34237 69.0465 1.06442 69.0465 1.06442C69.0465 1.06442 69.0718 0.963355 68.6675 0.988623C68.4401 0.988623 68.3643 0.975994 68.2253 1.19077C68.1369 1.32974 68.2758 1.9488 67.1135 2.12567C65.9512 2.30254 64.4352 2.01197 64.7005 3.98285H64.6878Z" fill="#E63946"/>
<path d="M70.1828 4.65232C71.4209 4.58915 72.6591 4.55124 73.8972 4.53861C73.8972 4.53861 74.6047 4.48807 74.9079 3.83111C75.1353 3.31313 75.7291 1.72127 75.7544 1.64547C75.7544 1.64547 75.9565 1.19064 76.2976 1.17801C76.8156 1.14011 79.0013 1.19064 79.0265 1.20327C79.1781 1.20327 79.3045 1.08957 79.3171 0.937963C79.3171 0.786357 79.2034 0.64739 79.0518 0.64739C78.9634 0.634757 76.8156 0.584216 76.285 0.622117C76.146 0.622117 76.0197 0.660021 75.906 0.72319C75.4638 0.937966 75.2616 1.43069 75.249 1.45596C75.249 1.48122 74.6426 3.11098 74.4278 3.6037C74.3646 3.75531 74.2509 3.84375 74.1499 3.90691C74.0235 3.97008 73.8972 3.99535 73.8845 3.99535L70.1702 4.10906L70.0565 4.14696C69.968 4.1975 69.9175 4.29857 69.9302 4.41227C69.9302 4.56388 70.0691 4.67758 70.2081 4.67758L70.1828 4.65232Z" fill="#E63946"/>
<path d="M70.3097 3.4767C71.1057 3.45143 71.9143 3.4009 72.7102 3.38826C72.7102 3.38826 73.8978 3.56513 74.3147 2.37755C74.7442 1.17734 74.8706 0.912031 74.8706 0.912031C74.8706 0.912031 74.8958 0.810958 74.4916 0.810958C74.2641 0.810958 74.1883 0.773053 74.0367 0.975194C73.9483 1.10153 74.0367 1.73323 72.8492 1.82167C71.6742 1.89747 70.196 1.50582 70.2971 3.48934L70.3097 3.4767Z" fill="#E63946"/>
<path d="M75.7424 4.57603C76.9805 4.61394 78.2187 4.6771 79.4441 4.76553C79.4441 4.76553 80.1516 4.76553 80.5054 4.13384C80.7707 3.62849 81.4908 2.08716 81.5287 2.02399C81.5287 2.02399 81.7688 1.58181 82.1099 1.60707C82.6279 1.60707 84.8009 1.83449 84.8261 1.84712C84.9778 1.85975 85.1167 1.75869 85.1294 1.59445C85.142 1.44284 85.0409 1.30386 84.8893 1.29123C84.8009 1.27859 82.6658 1.05119 82.1225 1.05119C81.9835 1.05119 81.8572 1.07645 81.7309 1.11435C81.276 1.29123 81.036 1.75868 81.0234 1.78395C81.0107 1.80921 80.2906 3.38845 80.0253 3.86853C79.9495 4.02014 79.8232 4.09594 79.7221 4.14648C79.5831 4.20965 79.4694 4.20965 79.4441 4.20965L75.7298 4.02014L75.6034 4.04541C75.515 4.09594 75.4518 4.18438 75.4518 4.29809C75.4518 4.44969 75.5656 4.57603 75.7172 4.57603H75.7424Z" fill="#E63946"/>
<path d="M75.9567 3.40158C76.7527 3.43948 77.5613 3.45211 78.3572 3.50264C78.3572 3.50264 79.5195 3.76796 80.0375 2.61828C80.5555 1.45596 80.7071 1.19066 80.7071 1.19066C80.7071 1.19066 80.745 1.10221 80.3407 1.06431C80.1133 1.05168 80.0375 1.00115 79.8732 1.19066C79.7722 1.31699 79.8101 1.93605 78.6225 1.93605C77.4475 1.91078 75.9947 1.41806 75.9441 3.38894L75.9567 3.40158Z" fill="#E63946"/>
<path d="M81.2755 4.93013C82.501 5.05647 83.7391 5.22071 84.9519 5.41021C84.9519 5.41021 85.6594 5.47338 86.0637 4.86696C86.3669 4.38687 87.2134 2.92135 87.2513 2.85818C87.2513 2.85818 87.5292 2.44126 87.8703 2.47916C88.3883 2.51706 90.5361 2.92135 90.5614 2.93398C90.713 2.95925 90.8646 2.87082 90.8898 2.71921C90.9277 2.5676 90.8267 2.41599 90.6751 2.39073C90.5866 2.36546 88.4768 1.97381 87.9461 1.92327C87.8072 1.91064 87.6682 1.92328 87.5545 1.96118C87.0871 2.10015 86.8091 2.54233 86.7965 2.5676C86.7838 2.59287 85.9247 4.10893 85.6342 4.56375C85.5457 4.70272 85.4194 4.77852 85.3057 4.81642C85.1667 4.86696 85.0404 4.86696 85.0277 4.85432L81.3387 4.37424H81.2123C81.1239 4.42477 81.0607 4.51321 81.0481 4.62691C81.0354 4.77852 81.1365 4.9175 81.2881 4.93013H81.2755Z" fill="#E63946"/>
<path d="M81.5794 3.7808C82.3753 3.86923 83.1712 3.95768 83.9545 4.07138C83.9545 4.07138 85.0916 4.43776 85.698 3.32598C86.317 2.2142 86.4813 1.96153 86.4813 1.96153C86.4813 1.96153 86.5318 1.87309 86.1275 1.80992C85.9128 1.77202 85.8369 1.72148 85.6474 1.89836C85.5337 2.01206 85.5211 2.63112 84.3462 2.54269C83.1712 2.42898 81.7689 1.80992 81.5541 3.7808H81.5794Z" fill="#E63946"/>
<path d="M86.7582 5.72586C87.971 5.95327 89.1839 6.20595 90.3841 6.50917C90.3841 6.50917 91.0916 6.62287 91.5338 6.05435C91.8749 5.61216 92.8351 4.19717 92.873 4.14663C92.873 4.14663 93.1888 3.75498 93.5173 3.81815C94.0227 3.90659 96.1451 4.47511 96.1578 4.50038C96.3094 4.53828 96.461 4.44984 96.4989 4.31087C96.5368 4.15926 96.461 4.00766 96.3094 3.95712C96.2209 3.91922 94.149 3.36333 93.631 3.2749C93.492 3.24963 93.3531 3.24963 93.2267 3.2749C92.7466 3.37597 92.4308 3.80552 92.4182 3.81815C92.4055 3.84342 91.4327 5.27104 91.1042 5.71323C91.0032 5.8522 90.8768 5.91537 90.7505 5.94064C90.6115 5.97854 90.4852 5.96591 90.4726 5.96591L86.834 5.18261H86.7077C86.6192 5.22051 86.5434 5.29631 86.5182 5.41002C86.4929 5.56162 86.5813 5.71323 86.7203 5.7385L86.7582 5.72586Z" fill="#E63946"/>
<path d="M91.7741 6.87535C93.1007 7.24173 93.1639 7.29226 94.3641 7.58284L94.7178 7.6081C94.7178 7.6081 95.0842 7.68391 95.5264 7.11538C95.8675 6.6732 96.8277 5.27085 96.8656 5.20768C96.8656 5.20768 97.1814 4.81603 97.5099 4.8792C98.0153 4.96763 99.8598 5.72566 99.885 5.7383C100.037 5.7762 100.188 5.68776 100.226 5.54879C100.264 5.39718 100.188 5.24558 100.037 5.20768C99.9482 5.16978 98.1542 4.43701 97.6236 4.33594C97.4846 4.31067 97.3457 4.31067 97.232 4.33594C96.7519 4.43701 96.436 4.85393 96.4234 4.8792C96.3981 4.90446 95.4379 6.33209 95.1095 6.77427C95.0084 6.90061 94.8821 6.97641 94.7557 7.00168C94.6167 7.03958 94.4904 7.02695 94.4778 7.02695L91.8752 6.31945H91.7489C91.6604 6.35736 91.5846 6.43316 91.5594 6.54686C91.5341 6.69847 91.6225 6.85008 91.7615 6.87535H91.7741Z" fill="#E63946"/>
<path d="M87.1628 4.61364C87.9461 4.75262 88.7294 4.92949 89.5127 5.09373C89.5127 5.09373 90.6118 5.56118 91.3193 4.49993C92.0268 3.43869 92.2164 3.19865 92.2164 3.19865C92.2164 3.19865 92.2669 3.11021 91.8752 3.00914C91.6605 2.9586 91.5847 2.90807 91.3951 3.05968C91.2688 3.16075 91.2183 3.79244 90.0433 3.5903C88.881 3.40079 87.5292 2.6554 87.1628 4.61364Z" fill="#E63946"/>
<path d="M95.6026 8.00066C96.7775 8.37968 97.9398 8.80922 99.1022 9.25141C99.1022 9.25141 99.7844 9.46618 100.302 8.96082C100.707 8.55654 101.831 7.29317 101.894 7.24263C101.894 7.24263 102.261 6.88888 102.576 7.00259C103.069 7.16683 105.091 8.00066 105.103 8.02592C105.242 8.08909 105.406 8.02593 105.47 7.87432C105.533 7.73535 105.47 7.57111 105.318 7.50794C105.242 7.45741 103.259 6.63621 102.753 6.47197C102.614 6.42143 102.488 6.4088 102.362 6.42143C101.882 6.45933 101.515 6.83834 101.49 6.86361C101.465 6.87625 100.315 8.17753 99.936 8.56918C99.8223 8.68288 99.6833 8.73342 99.5696 8.74605C99.418 8.77132 99.3043 8.74605 99.2917 8.73342L95.7921 7.48267H95.6658C95.5647 7.48267 95.4889 7.55847 95.451 7.67218C95.4004 7.82378 95.4763 7.97539 95.6152 8.02592L95.6026 8.00066Z" fill="#E63946"/>
<path d="M96.1459 6.9391C96.904 7.19178 97.662 7.4571 98.4074 7.73504C98.4074 7.73504 99.4433 8.34146 100.277 7.38129C101.111 6.42111 101.338 6.21897 101.326 6.21897C101.326 6.21897 101.389 6.14317 101.01 5.99157C100.795 5.90313 100.745 5.83996 100.53 5.99157C100.391 6.08 100.252 6.69906 99.1275 6.34531C98.0031 6.0042 96.765 5.08193 96.1459 6.96438V6.9391Z" fill="#E63946"/>
<path d="M92.4434 5.73875C92.974 5.95353 93.5299 6.01669 94.0605 6.25673C94.0605 6.25673 94.629 6.50942 95.1723 5.87772C95.6145 5.18286 95.8419 4.77858 95.8419 4.77858C95.8419 4.77858 95.8798 4.71541 95.6145 4.58907C95.2734 4.53853 95.3113 4.58907 95.1723 4.72804C95.0838 4.81648 95.1975 5.22076 94.4142 4.91755C93.6309 4.61434 92.8982 4.23532 92.4434 5.73875Z" fill="#E63946"/>
<path d="M100.795 9.94602C101.932 10.4261 103.056 10.9315 104.168 11.4747C104.168 11.4747 104.825 11.74 105.381 11.2726C105.81 10.9062 107.049 9.73123 107.099 9.69333C107.099 9.69333 107.491 9.37749 107.794 9.51646C108.274 9.70597 110.22 10.7167 110.232 10.7293C110.371 10.8051 110.536 10.7546 110.611 10.6156C110.687 10.4766 110.637 10.3124 110.498 10.2366C110.422 10.1861 108.514 9.20062 108.021 8.99848C107.895 8.93531 107.756 8.92267 107.63 8.92267C107.15 8.92267 106.745 9.26378 106.733 9.28905C106.707 9.30168 105.457 10.5019 105.04 10.8683C104.913 10.982 104.774 11.0073 104.648 11.0199C104.497 11.0199 104.383 10.982 104.37 10.982L100.984 9.4533H100.858C100.757 9.4533 100.668 9.51646 100.631 9.6049C100.567 9.74387 100.631 9.90811 100.77 9.95864L100.795 9.94602Z" fill="#E63946"/>
<path d="M101.426 8.9348C102.159 9.26328 102.905 9.56649 103.625 9.9076C103.625 9.9076 104.61 10.5898 105.52 9.70546C106.429 8.82109 106.67 8.63159 106.67 8.63159C106.67 8.63159 106.733 8.55578 106.379 8.37891C106.177 8.27783 106.126 8.21466 105.899 8.32837C105.76 8.40417 105.57 8.99797 104.471 8.56841C103.385 8.12623 102.222 7.12816 101.452 8.94743L101.426 8.9348Z" fill="#E63946"/>
<path d="M105.81 12.2953C106.91 12.8638 107.996 13.4576 109.057 14.0893C109.057 14.0893 109.702 14.4051 110.283 13.9882C110.738 13.6597 112.064 12.5985 112.127 12.5479C112.127 12.5479 112.544 12.2574 112.847 12.4216C113.302 12.6616 115.159 13.8113 115.172 13.8366C115.298 13.9124 115.475 13.8745 115.551 13.7481C115.64 13.6218 115.602 13.4449 115.475 13.3565C115.399 13.2933 113.58 12.1689 113.1 11.9162C112.974 11.8531 112.847 11.8152 112.721 11.8025C112.241 11.7646 111.811 12.0805 111.786 12.0931C111.761 12.1058 110.422 13.2049 109.98 13.5207C109.841 13.6218 109.702 13.6471 109.575 13.6344C109.424 13.6344 109.323 13.5839 109.297 13.5713L106.05 11.7646L105.924 11.7394C105.823 11.7394 105.735 11.8025 105.684 11.891C105.608 12.0299 105.659 12.1942 105.785 12.2574L105.81 12.2953Z" fill="#E63946"/>
<path d="M106.518 11.3483C107.226 11.7147 107.933 12.0937 108.628 12.498C108.628 12.498 109.55 13.2687 110.523 12.4475C111.509 11.6389 111.761 11.462 111.761 11.462C111.761 11.462 111.837 11.3989 111.483 11.1841C111.294 11.0704 111.231 10.9946 111.003 11.0956C110.852 11.1588 110.612 11.74 109.563 11.2094C108.514 10.6914 107.441 9.57959 106.518 11.3483Z" fill="#E63946"/>
<path d="M110.624 15.0627C111.673 15.7196 112.709 16.4019 113.72 17.1094C113.72 17.1094 114.339 17.4757 114.958 17.1094C115.438 16.8188 116.853 15.8586 116.916 15.8207C116.916 15.8207 117.345 15.568 117.636 15.7575C118.078 16.0355 119.834 17.3368 119.847 17.3494C119.973 17.4378 120.15 17.4126 120.239 17.2989C120.327 17.1725 120.314 16.9956 120.188 16.9072C120.125 16.844 118.394 15.568 117.939 15.2901C117.826 15.2143 117.699 15.1637 117.573 15.1511C117.093 15.0753 116.638 15.3532 116.625 15.3659C116.6 15.3785 115.172 16.364 114.718 16.6419C114.579 16.7303 114.427 16.743 114.313 16.7303C114.162 16.7177 114.061 16.6545 114.035 16.6545L110.94 14.5952L110.826 14.5573C110.725 14.5573 110.624 14.5952 110.574 14.6963C110.485 14.8226 110.523 14.9995 110.65 15.0753L110.624 15.0627Z" fill="#E63946"/>
<path d="M111.407 14.165C112.089 14.5819 112.746 15.0367 113.416 15.4789C113.416 15.4789 114.275 16.3128 115.311 15.58C116.347 14.8472 116.612 14.7083 116.612 14.7083C116.612 14.7083 116.688 14.6451 116.359 14.405C116.182 14.2661 116.132 14.2029 115.892 14.2787C115.74 14.3292 115.45 14.8978 114.439 14.2787C113.428 13.6723 112.455 12.4847 111.394 14.165H111.407Z" fill="#E63946"/>
<path d="M115.21 18.1835C116.208 18.9289 117.181 19.6869 118.129 20.4829C118.129 20.4829 118.71 20.8998 119.367 20.5839C119.872 20.3313 121.35 19.4848 121.413 19.4595C121.413 19.4595 121.868 19.2448 122.133 19.4595C122.55 19.7628 124.205 21.203 124.218 21.2283C124.332 21.3293 124.509 21.3167 124.61 21.203C124.711 21.0893 124.711 20.9124 124.597 20.8114C124.534 20.7482 122.917 19.3332 122.487 19.0174C122.373 18.9289 122.247 18.8784 122.133 18.8405C121.666 18.7268 121.199 18.9668 121.173 18.9794C121.148 18.9794 119.645 19.8638 119.165 20.1039C119.013 20.1797 118.874 20.1797 118.748 20.1544C118.596 20.1291 118.508 20.0533 118.482 20.0533L115.551 17.754L115.438 17.7034C115.336 17.7034 115.235 17.7287 115.172 17.8171C115.084 17.9435 115.096 18.1077 115.223 18.1962L115.21 18.1835Z" fill="#E63946"/>
<path d="M116.069 17.3617C116.701 17.8544 117.345 18.3219 117.964 18.8399C117.964 18.8399 118.76 19.7369 119.846 19.0925C120.946 18.4482 121.224 18.3219 121.224 18.3219C121.224 18.3219 121.312 18.2713 120.996 18.006C120.819 17.8671 120.781 17.7786 120.541 17.8418C120.377 17.8923 120.061 18.4103 119.101 17.7281C118.153 17.0332 117.256 15.7825 116.069 17.3743V17.3617Z" fill="#E63946"/>
<path d="M119.518 21.6822C120.453 22.5034 121.362 23.3373 122.247 24.1964C122.247 24.1964 122.803 24.6512 123.472 24.3859C124.003 24.1711 125.532 23.451 125.607 23.4257C125.607 23.4257 126.075 23.2488 126.328 23.4762C126.719 23.8173 128.248 25.3839 128.26 25.4092C128.362 25.5229 128.538 25.5229 128.652 25.4092C128.766 25.3081 128.766 25.1313 128.652 25.0176C128.602 24.9418 127.098 23.4131 126.694 23.0593C126.58 22.9582 126.466 22.9077 126.353 22.8572C125.898 22.7056 125.405 22.9077 125.38 22.9203C125.355 22.9203 123.788 23.6657 123.283 23.8805C123.131 23.9437 122.98 23.931 122.866 23.9058C122.727 23.8679 122.626 23.7921 122.613 23.7794L119.884 21.2527L119.771 21.1895C119.682 21.1642 119.568 21.1895 119.505 21.2779C119.404 21.3916 119.404 21.5685 119.518 21.6696V21.6822Z" fill="#E63946"/>
<path d="M120.44 20.9246C121.047 21.4426 121.628 21.9985 122.222 22.5417C122.222 22.5417 122.929 23.5019 124.079 22.946C125.228 22.3901 125.506 22.2764 125.506 22.2764C125.506 22.2764 125.595 22.2259 125.304 21.948C125.14 21.7964 125.102 21.7079 124.862 21.7458C124.698 21.7711 124.331 22.2764 123.434 21.5184C122.537 20.7604 121.754 19.4338 120.44 20.9246Z" fill="#E63946"/>
<path d="M123.549 25.4985C124.421 26.3829 125.254 27.2925 126.063 28.2274C126.063 28.2274 126.568 28.7328 127.263 28.518C127.806 28.3538 129.398 27.7473 129.474 27.7221C129.474 27.7221 129.954 27.5831 130.182 27.8358C130.548 28.2022 131.95 29.8825 131.95 29.9077C132.051 30.0214 132.228 30.0467 132.342 29.9456C132.456 29.8446 132.481 29.6803 132.38 29.554C132.329 29.4782 130.952 27.8231 130.586 27.4441C130.485 27.3431 130.384 27.2673 130.257 27.2167C129.803 27.0272 129.31 27.1914 129.272 27.2041C129.247 27.2041 127.63 27.8231 127.112 28C126.947 28.0505 126.808 28.0253 126.695 27.9874C126.556 27.9368 126.467 27.861 126.455 27.8484L123.928 25.1195L123.814 25.0563C123.726 25.0311 123.612 25.0563 123.536 25.1321C123.423 25.2458 123.423 25.4101 123.524 25.5111L123.549 25.4985Z" fill="#E63946"/>
<path d="M124.521 24.8163C125.077 25.3848 125.621 25.9786 126.164 26.5724C126.164 26.5724 126.796 27.5831 127.983 27.1157C129.171 26.6482 129.461 26.5724 129.461 26.5724C129.461 26.5724 129.55 26.5345 129.297 26.2187C129.158 26.0418 129.133 25.966 128.88 25.9913C128.716 26.0039 128.299 26.484 127.465 25.6501C126.631 24.8163 125.962 23.4392 124.534 24.8163H124.521Z" fill="#E63946"/>
<path d="M127.251 29.629C128.034 30.5892 128.805 31.562 129.537 32.5474C129.537 32.5474 130.005 33.0907 130.712 32.9391C131.268 32.8127 132.898 32.3453 132.974 32.3326C132.974 32.3326 133.467 32.2316 133.681 32.4969C134.022 32.8885 135.273 34.6825 135.286 34.7078C135.374 34.8341 135.551 34.8721 135.677 34.7836C135.804 34.6952 135.842 34.5183 135.753 34.392C135.703 34.3162 134.477 32.5601 134.124 32.1558C134.035 32.0421 133.934 31.9663 133.82 31.9031C133.391 31.6757 132.873 31.802 132.848 31.802C132.822 31.802 131.155 32.2947 130.624 32.4211C130.46 32.459 130.321 32.4211 130.207 32.3706C130.068 32.3074 129.992 32.2189 129.98 32.2063L127.68 29.2753L127.579 29.1995C127.491 29.1616 127.377 29.1742 127.301 29.25C127.188 29.3511 127.162 29.5153 127.251 29.629Z" fill="#E63946"/>
<path d="M128.273 29.0227C128.779 29.6418 129.284 30.2608 129.764 30.9051C129.764 30.9051 130.32 31.9664 131.533 31.6C132.746 31.2336 133.049 31.1705 133.049 31.1705C133.049 31.1705 133.15 31.1325 132.91 30.8041C132.784 30.6272 132.758 30.5388 132.506 30.5388C132.341 30.5388 131.912 30.9809 131.129 30.0839C130.371 29.1869 129.802 27.7593 128.273 29.0227Z" fill="#E63946"/>
<path d="M130.611 34.0381C131.318 35.0489 132.013 36.0848 132.657 37.1335C132.657 37.1335 133.087 37.7146 133.794 37.6135C134.35 37.5377 136.018 37.1966 136.094 37.184C136.094 37.184 136.586 37.1208 136.788 37.3988C137.079 37.8283 138.203 39.6981 138.203 39.736C138.279 39.8624 138.456 39.9129 138.582 39.8371C138.721 39.7613 138.772 39.5844 138.684 39.4581C138.646 39.3696 137.547 37.5251 137.243 37.0955C137.168 36.9818 137.066 36.8934 136.953 36.8176C136.536 36.5523 136.018 36.6407 135.993 36.6407C135.967 36.6407 134.274 36.9945 133.731 37.0703C133.567 37.0955 133.428 37.045 133.327 36.9945C133.2 36.9187 133.125 36.8302 133.112 36.8176L131.065 33.7223L130.964 33.6339C130.876 33.596 130.762 33.596 130.674 33.6591C130.547 33.7476 130.509 33.9118 130.598 34.0381H130.611Z" fill="#E63946"/>
<path d="M131.685 33.5202C132.152 34.1772 132.582 34.8341 133.024 35.5037C133.024 35.5037 133.479 36.6029 134.73 36.3375C135.98 36.0722 136.271 36.0343 136.271 36.0343C136.271 36.0343 136.372 36.0091 136.157 35.668C136.043 35.4784 136.018 35.39 135.778 35.3774C135.614 35.3774 135.134 35.769 134.452 34.8088C133.757 33.8613 133.315 32.3832 131.685 33.5202Z" fill="#E63946"/>
<path d="M133.604 38.7133C134.236 39.7745 134.83 40.861 135.398 41.9602C135.398 41.9602 135.777 42.5792 136.498 42.5287C137.066 42.4908 138.759 42.2886 138.822 42.2886C138.822 42.2886 139.327 42.2634 139.492 42.5666C139.757 43.0088 140.717 44.9797 140.717 45.0049C140.78 45.1439 140.957 45.2071 141.096 45.1439C141.235 45.0807 141.298 44.9165 141.235 44.7775C141.21 44.6891 140.262 42.7561 139.984 42.3013C139.909 42.1749 139.82 42.0739 139.719 41.9981C139.327 41.7075 138.797 41.7454 138.772 41.7454C138.746 41.7454 137.028 41.9602 136.485 41.9981C136.321 41.9981 136.182 41.9475 136.093 41.8844C135.967 41.7959 135.904 41.7075 135.891 41.6822L134.084 38.4227L133.996 38.3343C133.908 38.2837 133.807 38.2837 133.705 38.3343C133.579 38.4101 133.529 38.5743 133.604 38.7006V38.7133Z" fill="#E63946"/>
<path d="M134.716 38.2831C135.12 38.978 135.512 39.6729 135.891 40.3804C135.891 40.3804 136.27 41.5174 137.533 41.3405C138.797 41.1763 139.1 41.1636 139.1 41.1636C139.1 41.1636 139.201 41.151 139.012 40.7846C138.911 40.5825 138.911 40.4941 138.658 40.4562C138.506 40.4309 137.988 40.7973 137.369 39.7866C136.75 38.7885 136.434 37.2724 134.716 38.2831Z" fill="#E63946"/>
<path d="M136.22 43.6026C136.751 44.7144 137.269 45.8388 137.749 46.9885C137.749 46.9885 138.077 47.6328 138.798 47.6454C139.366 47.6454 141.059 47.5949 141.135 47.5949C141.135 47.5949 141.64 47.6075 141.779 47.9234C142.019 48.3908 142.803 50.4249 142.815 50.4501C142.866 50.6017 143.03 50.6649 143.169 50.6144C143.321 50.5638 143.384 50.3996 143.333 50.2606C143.308 50.1722 142.525 48.176 142.285 47.696C142.221 47.5696 142.146 47.4685 142.045 47.3801C141.678 47.0516 141.16 47.0516 141.122 47.0516C141.097 47.0516 139.353 47.1274 138.81 47.1148C138.646 47.1148 138.52 47.039 138.419 46.9632C138.305 46.8748 138.242 46.761 138.242 46.7484L136.713 43.3626L136.637 43.2615C136.561 43.2109 136.448 43.1983 136.347 43.2362C136.208 43.2994 136.144 43.4636 136.208 43.59L136.22 43.6026Z" fill="#E63946"/>
<path d="M137.37 43.2611C137.711 43.9813 138.052 44.7014 138.368 45.4468C138.368 45.4468 138.659 46.6091 139.922 46.5459C141.198 46.4828 141.501 46.4954 141.501 46.4954C141.501 46.4954 141.602 46.4954 141.451 46.1164C141.362 45.9142 141.362 45.8258 141.122 45.7626C140.958 45.7247 140.427 46.0406 139.897 44.992C139.379 43.9307 139.164 42.4147 137.383 43.2738L137.37 43.2611Z" fill="#E63946"/>
<path d="M138.432 48.6931C138.874 49.8428 139.303 51.0051 139.682 52.1927C139.682 52.1927 139.96 52.8623 140.68 52.9381C141.236 53.0012 142.942 53.0644 143.018 53.077C143.018 53.077 143.51 53.1276 143.637 53.4561C143.826 53.9362 144.458 56.0334 144.458 56.0586C144.496 56.2102 144.648 56.286 144.799 56.2481C144.951 56.2102 145.039 56.046 144.989 55.907C144.989 55.8186 144.357 53.7593 144.155 53.2665C144.104 53.1276 144.028 53.0265 143.94 52.9381C143.599 52.5843 143.081 52.5464 143.056 52.5338C143.03 52.5338 141.3 52.458 140.756 52.4201C140.592 52.4074 140.466 52.3316 140.377 52.2432C140.264 52.1421 140.226 52.0284 140.213 52.0158L138.962 48.5162L138.886 48.4152C138.811 48.352 138.71 48.3267 138.609 48.3773C138.47 48.4278 138.394 48.592 138.444 48.731L138.432 48.6931Z" fill="#E63946"/>
<path d="M139.594 48.4406C139.884 49.186 140.162 49.9314 140.415 50.6894C140.415 50.6894 140.604 51.877 141.868 51.9023C143.144 51.9402 143.447 51.9781 143.447 51.9781C143.447 51.9781 143.548 51.9781 143.422 51.5864C143.346 51.3716 143.358 51.2832 143.118 51.2074C142.967 51.1569 142.398 51.4348 141.956 50.3357C141.514 49.2492 141.438 47.7078 139.581 48.4279L139.594 48.4406Z" fill="#E63946"/>
<path d="M140.225 53.9372C140.578 55.1248 140.894 56.325 141.185 57.5252C141.185 57.5252 141.412 58.2075 142.12 58.3464C142.676 58.4475 144.356 58.6623 144.432 58.6749C144.432 58.6749 144.925 58.776 145.026 59.1045C145.165 59.5972 145.632 61.7449 145.619 61.7702C145.645 61.9218 145.796 62.0229 145.948 61.985C146.099 61.9597 146.201 61.8081 146.163 61.6565C146.163 61.5681 145.695 59.4582 145.556 58.9528C145.518 58.8139 145.455 58.7002 145.367 58.5991C145.051 58.2201 144.533 58.1317 144.508 58.1317C144.482 58.1317 142.764 57.9169 142.234 57.8284C142.069 57.8032 141.956 57.7147 141.867 57.6263C141.766 57.5126 141.728 57.3989 141.716 57.3863L140.743 53.7982L140.68 53.6845C140.616 53.6214 140.503 53.5835 140.402 53.6214C140.25 53.6719 140.162 53.8109 140.212 53.9499L140.225 53.9372Z" fill="#E63946"/>
<path d="M141.4 53.7853C141.64 54.5433 141.829 55.3266 142.044 56.0973C142.044 56.0973 142.12 57.2975 143.396 57.4238C144.659 57.5628 144.95 57.6259 144.95 57.6259C144.95 57.6259 145.051 57.6259 144.962 57.2343C144.912 57.0195 144.924 56.9311 144.697 56.83C144.545 56.7669 143.964 57.0069 143.61 55.8698C143.257 54.7454 143.307 53.2041 141.4 53.7726V53.7853Z" fill="#E63946"/>
<path d="M141.59 59.319C141.842 60.5319 142.07 61.7447 142.259 62.9702C142.259 62.9702 142.411 63.6777 143.118 63.8672C143.661 64.0188 145.329 64.3599 145.405 64.3726C145.405 64.3726 145.885 64.5115 145.948 64.84C146.062 65.3454 146.34 67.5184 146.34 67.5436C146.352 67.6952 146.491 67.809 146.656 67.7837C146.807 67.7711 146.921 67.6321 146.896 67.4805C146.896 67.392 146.618 65.2569 146.504 64.7389C146.479 64.6 146.428 64.4736 146.352 64.3726C146.075 63.9683 145.557 63.8419 145.531 63.8419C145.506 63.8419 143.813 63.4882 143.282 63.3492C143.118 63.3113 143.017 63.2102 142.941 63.1092C142.853 62.9955 142.815 62.8817 142.815 62.8565L142.145 59.2053L142.095 59.0916C142.032 59.0158 141.931 58.9779 141.817 59.0032C141.665 59.0411 141.564 59.18 141.602 59.319H141.59Z" fill="#E63946"/>
<path d="M142.778 59.2554C142.929 60.0387 143.093 60.822 143.232 61.6179C143.232 61.6179 143.232 62.8182 144.471 63.0582C145.721 63.2982 146.012 63.3867 146.012 63.3867C146.012 63.3867 146.113 63.3993 146.05 62.995C146.025 62.7676 146.05 62.6792 145.822 62.5655C145.671 62.4897 145.077 62.6792 144.812 61.5295C144.546 60.3798 144.723 58.8511 142.778 59.2554Z" fill="#E63946"/>
<path d="M142.511 64.7886C142.663 66.0141 142.789 67.2522 142.89 68.4777C142.89 68.4777 142.991 69.1978 143.674 69.4379C144.204 69.6274 145.847 70.1075 145.91 70.1327C145.91 70.1327 146.377 70.3096 146.415 70.6507C146.491 71.1687 146.592 73.3544 146.592 73.367C146.592 73.5186 146.731 73.645 146.883 73.6323C147.034 73.6323 147.161 73.4933 147.148 73.3417C147.148 73.2533 147.047 71.1055 146.971 70.5749C146.958 70.4359 146.908 70.3096 146.845 70.1959C146.605 69.779 146.099 69.6021 146.074 69.6021C146.049 69.6021 144.381 69.1094 143.863 68.9325C143.711 68.8694 143.598 68.7683 143.535 68.6672C143.459 68.5409 143.434 68.4272 143.434 68.4019L143.055 64.7002L143.004 64.5865C142.953 64.5107 142.852 64.4602 142.739 64.4728C142.587 64.4981 142.473 64.6244 142.499 64.776L142.511 64.7886Z" fill="#E63946"/>
<path d="M143.7 64.8269C143.788 65.6229 143.889 66.4188 143.952 67.2147C143.952 67.2147 143.864 68.4023 145.077 68.7434C146.302 69.0845 146.58 69.1982 146.58 69.1982C146.58 69.1982 146.681 69.2235 146.656 68.8192C146.643 68.5918 146.669 68.516 146.454 68.377C146.315 68.2886 145.708 68.4276 145.531 67.2526C145.38 66.0903 145.645 64.5743 143.687 64.8269H143.7Z" fill="#E63946"/>
<path d="M16.0978 36.1861C16.8558 35.0491 16.919 34.9986 17.576 33.9499L17.7149 33.6215C17.7149 33.6215 17.9044 33.3056 17.5002 32.6992C17.1843 32.2317 16.1483 30.8926 16.1104 30.8294C16.1104 30.8294 15.8325 30.4125 15.9967 30.1093C16.2494 29.6544 17.5254 28.1384 17.5507 28.1257C17.6391 27.9994 17.6012 27.8225 17.4749 27.7341C17.3486 27.6457 17.1717 27.6836 17.0832 27.8099C17.0201 27.8731 15.7567 29.3639 15.504 29.8313C15.4282 29.9577 15.4029 30.084 15.3777 30.2103C15.3271 30.6904 15.6303 31.12 15.643 31.1452C15.6556 31.1705 16.7169 32.5349 17.0327 32.9898C17.1338 33.1287 17.1464 33.2677 17.1464 33.3941C17.1464 33.5457 17.0832 33.6467 17.0832 33.672L15.5925 35.9208L15.5545 36.0472C15.5545 36.1482 15.6051 36.2367 15.7062 36.2872C15.8451 36.363 16.0094 36.3125 16.0852 36.1861H16.0978Z" fill="#E63946"/>
<path d="M15.2257 35.2008C15.5921 34.7586 15.8195 34.2532 16.2238 33.8237C16.2238 33.8237 16.6407 33.3689 16.2238 32.6487C15.7058 32.0044 15.39 31.6759 15.39 31.6759C15.39 31.6759 15.3521 31.6128 15.1373 31.8276C14.9857 32.1308 15.0362 32.1181 15.1373 32.295C15.2005 32.4087 15.6174 32.4214 15.0868 33.0657C14.5561 33.7226 13.9623 34.2911 15.251 35.2008H15.2257Z" fill="#E63946"/>
<path d="M20.5957 117.094C19.724 116.032 19.6987 115.957 18.8775 115.022L18.6122 114.794C18.6122 114.794 18.3596 114.516 17.6773 114.731C17.1341 114.895 15.5548 115.502 15.479 115.527C15.479 115.527 14.999 115.679 14.7589 115.426C14.3925 115.06 13.3186 113.392 13.306 113.367C13.2049 113.253 13.0407 113.228 12.9144 113.329C12.8007 113.43 12.7754 113.607 12.8765 113.72C12.927 113.796 13.9882 115.439 14.3546 115.818C14.4557 115.919 14.5694 115.994 14.6831 116.045C15.1379 116.234 15.6306 116.07 15.6559 116.045C15.6812 116.045 17.2983 115.426 17.8163 115.249C17.9805 115.198 18.1195 115.224 18.2332 115.249C18.3722 115.3 18.4606 115.375 18.4733 115.401L20.1915 117.473L20.3052 117.536C20.3936 117.561 20.5073 117.536 20.5831 117.46C20.6968 117.346 20.6968 117.182 20.5957 117.068V117.094Z" fill="#E63946"/>
<path d="M19.3827 117.649C19.0668 117.169 18.6499 116.803 18.3593 116.297C18.3593 116.297 18.0435 115.767 17.2349 115.969C16.4769 116.285 16.06 116.487 16.06 116.487C16.06 116.487 15.9968 116.512 16.1358 116.777C16.3884 117.017 16.3884 116.954 16.578 116.916C16.7043 116.891 16.8306 116.487 17.3107 117.194C17.7782 117.889 18.1572 118.622 19.3953 117.649H19.3827Z" fill="#E63946"/>
<path d="M98.8617 137.839C97.5857 138.319 97.4973 138.331 96.3602 138.799L96.057 138.988C96.057 138.988 95.7159 139.14 95.6906 139.86C95.6906 140.429 95.7412 142.121 95.7412 142.197C95.7412 142.197 95.7285 142.703 95.4127 142.842C94.9452 143.069 93.0249 143.562 92.9996 143.549C92.8607 143.6 92.7848 143.764 92.8354 143.903C92.8859 144.054 93.0502 144.118 93.1891 144.067C93.2776 144.042 95.1727 143.574 95.6527 143.334C95.7791 143.271 95.8802 143.195 95.9686 143.094C96.2971 142.728 96.2971 142.197 96.2971 142.172C96.2971 142.147 96.2339 140.416 96.2339 139.873C96.2339 139.708 96.3097 139.569 96.3855 139.481C96.4739 139.367 96.5876 139.304 96.6003 139.291L99.1144 138.331L99.2155 138.256C99.266 138.18 99.2787 138.066 99.2407 137.965C99.1776 137.826 99.0133 137.763 98.8744 137.826L98.8617 137.839Z" fill="#E63946"/>
<path d="M99.0011 139.165C98.4452 139.304 97.9651 139.595 97.3966 139.708C97.3966 139.708 96.7902 139.847 96.727 140.668C96.7776 141.49 96.8407 141.944 96.8407 141.944C96.8407 141.944 96.8407 142.02 97.1313 141.97C97.4345 141.818 97.384 141.793 97.4093 141.591C97.4219 141.464 97.0934 141.212 97.902 140.984C98.7106 140.77 99.5191 140.631 99.0011 139.152V139.165Z" fill="#E63946"/>
<path d="M143.068 69.8298C143.093 71.1943 143.068 71.2827 143.144 72.5082L143.219 72.8493C143.219 72.8493 143.245 73.2283 143.914 73.481C144.445 73.6832 146.062 74.1885 146.125 74.2138C146.125 74.2138 146.593 74.3907 146.631 74.7318C146.694 75.2498 146.517 77.2333 146.504 77.2459C146.504 77.3975 146.631 77.5238 146.782 77.5238C146.934 77.5238 147.06 77.3975 147.06 77.2333C147.06 77.1448 147.25 75.1992 147.187 74.6686C147.174 74.5296 147.123 74.4033 147.06 74.2896C146.82 73.86 146.327 73.6832 146.302 73.6705C146.277 73.6705 144.622 73.1525 144.104 72.963C143.952 72.8999 143.851 72.7988 143.788 72.6977C143.712 72.5714 143.687 72.4577 143.687 72.4324L143.611 69.7414L143.561 69.6277C143.51 69.5519 143.409 69.5014 143.295 69.514C143.144 69.5266 143.03 69.6656 143.043 69.8046L143.068 69.8298Z" fill="#E63946"/>
<path d="M144.356 70.133C144.305 70.7015 144.406 71.2574 144.331 71.8259C144.331 71.8259 144.255 72.4323 145.013 72.786C145.809 73.0135 146.264 73.1019 146.264 73.1019C146.264 73.1019 146.327 73.1272 146.39 72.8366C146.339 72.4955 146.301 72.5334 146.125 72.4449C146.011 72.3944 145.657 72.6218 145.72 71.7754C145.783 70.9415 145.922 70.1329 144.356 70.1203V70.133Z" fill="#E63946"/>
<path d="M47.4669 10.8298C39.3559 14.2662 32.0662 19.1807 25.8124 25.4345C19.5461 31.6883 14.6441 38.978 11.2077 47.1016C7.65761 55.5031 5.85097 64.4352 5.85097 73.6326C5.85097 82.8301 7.65761 91.7622 11.2077 100.164C14.6441 108.275 19.5587 115.564 25.8124 121.831C32.0662 128.084 39.3559 132.999 47.4669 136.435C55.8684 139.986 64.8005 141.792 73.9979 141.792C83.1954 141.792 92.1275 139.986 100.529 136.435C108.64 132.999 115.93 128.084 122.196 121.831C128.45 115.577 133.364 108.287 136.801 100.164C140.351 91.7622 142.157 82.8427 142.157 73.6326C142.157 64.4225 140.351 55.5031 136.801 47.1016C133.364 38.9906 128.45 31.7009 122.196 25.4345C115.942 19.1807 108.653 14.2662 100.529 10.8298C92.1275 7.27967 83.1954 5.47304 73.9979 5.47304C64.8005 5.47304 55.8684 7.27967 47.4669 10.8298ZM47.6437 136.019C39.5833 132.607 32.3441 127.731 26.1283 121.502C19.9124 115.286 15.0231 108.047 11.6246 99.9868C8.08716 91.6358 6.30579 82.7795 6.30579 73.6326C6.30579 64.4857 8.09979 55.6294 11.6246 47.2784C15.0358 39.218 19.9124 31.9788 26.1283 25.763C32.3441 19.5471 39.5833 14.6578 47.6437 11.2593C55.9947 7.72185 64.851 5.94048 73.9979 5.94048C83.1448 5.94048 92.0011 7.73449 100.352 11.2593C108.413 14.6705 115.652 19.5471 121.868 25.763C128.083 31.9788 132.973 39.218 136.371 47.2784C139.896 55.6294 141.69 64.4984 141.69 73.6326C141.69 82.7669 139.896 91.6358 136.371 99.9868C132.96 108.047 128.083 115.286 121.868 121.502C115.652 127.718 108.413 132.607 100.352 136.019C92.0011 139.543 83.1322 141.337 73.9979 141.337C64.8637 141.337 55.9947 139.543 47.6437 136.019Z" fill="#E63946"/>
</svg>
